<?xml version="1.0" encoding="UTF-8"?>
<svg enable-background="new 0 0 136.208 132.724" viewBox="0 0 136.208 132.724" xmlns="http://www.w3.org/2000/svg">
 <defs>
  <radialGradient id="a" cx="40.95" cy="34.539" r="95.494" gradientUnits="userSpaceOnUse">
   <stop stop-color="#d1f593" offset="0"/>
   <stop stop-color="#81ce09" offset="1"/>
  </radialGradient>
 </defs>
 <path d="m127.832,76.994h-26.073c-.876,0-.414,21.366-.414,23.361-.002,7.306 2.59,21.361-2.609,27.527-5.432,6.442-19.097,3.944-26.469,3.944h-27.989c-12.528,0-11.333-12.918-11.333-21.555v-31.712c0-2.716-2.349-1.566-4.825-1.566h-16.91c-9.402,0-13.781-9.703-6.941-16.563l17.733-17.789c12.58-12.622 24.593-26.966 38.274-38.398 8.089-8.067 15.792.108 21.49,5.802 7.764,7.755 15.526,15.512 23.288,23.267l22.886,22.864c4.946,4.941 11.266,11.203 4.96,18.47-1.286,1.482-3.094,2.348-5.068,2.348" fill="url(#a)"/>
 <path d="m16.189,57.658c4.997-5.012 51.783-52.178 52.014-51.949l29.214,29.078 17.404,17.322c3.57,3.553 10.455,8.647 7.89,14.462h12.631c-.689-5.384-6.758-9.637-10.335-13.197l-22.272-22.178c-7.081-7.053-14.164-14.106-21.247-21.156-3.833-3.818-7.758-9.053-13.518-8.983-5.548-.066-9.148,4.643-12.825,8.333l-20.688,20.754c-7.461,7.485-14.924,14.973-22.387,22.458-3.697,3.711-10.323,8.368-11.051,13.968h12.715c-1.269-3.035.282-6.724 2.455-8.912" fill="#b2ed21"/>
 <path d="m9.47,76.994h23.013c.992,0 .462,17.187.462,18.898v24.587c0,10.865 9.978,11.348 17.978,11.348h30.392c7.737,0 18.258,1.126 20.113-9.094 1.288-7.095.177-15.213.175-22.374 0-7.788 0-15.577-.002-23.365h25.177c3.096,0 5.95-1.309 7.473-4.088 .657-1.201 2.493-6.336.286-6.336h-7.657c-3.817,0-3.098.059-5.834,2.063-3.066,2.247-8.809,1.367-12.393,1.367h-15.359c-.967,0-.455,21.364-.455,23.413 0,7.354 2.376,20.491-1.599,27.262-4.044,6.89-21.157,3.776-27.612,3.776-9.089,0-22.142,2.461-22.142-10.68v-27.765-15.745c0-.553-14.563-.262-16.051-.262-2.303,0-4.82.234-7.109-.167-1.955-.343-3.796-1.363-4.592-3.264-1.026-.408-3.119,0-4.197,0-1.333,0-7.573-.91-8.518,0-.704,5.453 2.689,10.426 8.451,10.426" fill="#67ba06"/>
 <path d="m59.643 3.605-38.277 38.403-17.733 17.792c-3.318 3.329-4.65 8.05-2.783 12.57 2.504 6.049 8.719 5.521 14.104 5.521h16.132c1.965 0 0.962 6.644 0.962 8.338v32.824c0 11.07 8.116 13.671 17.371 13.671h33.332c8.506 0 19.487-0.436 19.487-12.059 0-9.182 1e-3 -18.363 1e-3 -27.545v-12.989c0-3.605 2.66-2.24 5.996-2.24 9.25 0 27.972 3.927 27.972-10.274 0-6.398-6.319-10.761-10.438-14.876l-23.254-23.23-20.769-20.755c-5.936-5.931-13.938-13.285-22.103-5.151m-57.135 68.08c-3.232-7.813 5.47-13.708 10.197-18.451 8.159-8.184 16.319-16.372 24.478-24.557 6.955-6.978 13.911-13.954 20.866-20.932 5.324-5.34 11.826-8.319 18.174-1.976l43.27 43.233c4.129 4.123 9.54 8.205 12.967 12.955 4.394 4.39 1.526 14.141-5.026 14.141h-26.883c-0.221 0-0.102 6.219-0.102 6.698 0 11.1-2e-3 22.201-2e-3 33.301 0 8.832-3.202 14.835-12.965 14.835h-32.33c-8 0-21.311 1.682-21.311-10.255v-41.673c0-2.955 0.478-2.906-2.534-2.906-6.563 0-25.568 3.406-28.799-4.413" fill="#739b07"/>
</svg>
