<?xml version="1.0" standalone="no"?>
<!DOCTYPE svg PUBLIC "-//W3C//DTD SVG 20010904//EN"
 "http://www.w3.org/TR/2001/REC-SVG-20010904/DTD/svg10.dtd">
<svg version="1.0" xmlns="http://www.w3.org/2000/svg"
 width="1280.000000pt" height="1280.000000pt" viewBox="0 0 1280.000000 1280.000000"
 preserveAspectRatio="xMidYMid meet">
<metadata>
Created by potrace 1.11, written by Peter Selinger 2001-2013
</metadata>
<g transform="translate(0.000000,1280.000000) scale(0.100000,-0.100000)"
fill="#000000" stroke="none">
<path d="M5234 9758 c-3 -4 -38 -34 -77 -65 -40 -32 -77 -62 -83 -68 -6 -5
-22 -17 -34 -25 -12 -8 -28 -20 -34 -25 -6 -6 -47 -40 -91 -75 -44 -36 -82
-67 -85 -70 -3 -3 -34 -28 -70 -55 -72 -56 -106 -84 -126 -103 -8 -7 -14 -11
-14 -7 0 3 -11 -5 -24 -19 -13 -15 -26 -26 -30 -26 -6 0 -27 -18 -71 -60 -12
-11 -26 -20 -32 -20 -6 0 -13 -4 -15 -8 -3 -7 -81 -74 -162 -137 -21 -16 -46
-37 -56 -45 -10 -8 -30 -24 -45 -34 -14 -11 -35 -27 -46 -37 -11 -9 -38 -32
-61 -51 -23 -18 -47 -39 -55 -46 -7 -7 -13 -10 -13 -5 0 4 -4 3 -8 -3 -4 -7
-83 -73 -177 -148 -93 -75 -177 -142 -185 -149 -8 -7 -18 -14 -22 -15 -5 -1
-16 -10 -26 -19 -37 -36 -82 -73 -82 -68 0 3 -8 -3 -18 -12 -38 -37 -82 -73
-88 -73 -4 0 -17 -11 -30 -25 -13 -14 -28 -25 -34 -25 -5 0 -10 -4 -10 -10 0
-5 -7 -10 -16 -10 -8 0 -12 -4 -9 -10 3 -5 -1 -10 -9 -10 -9 0 -16 -5 -16 -11
0 -6 -7 -9 -15 -5 -8 3 -14 1 -12 -3 2 -10 -73 -80 -88 -82 -5 -1 -14 0 -20 1
-5 1 -7 -1 -3 -5 8 -8 1 -16 -63 -68 -25 -20 -51 -37 -58 -37 -7 0 -10 -4 -7
-8 2 -4 -12 -19 -32 -32 -20 -14 -43 -33 -50 -42 -7 -10 -18 -18 -23 -18 -5 0
-20 -10 -33 -22 -32 -32 -65 -58 -72 -58 -3 0 -15 -10 -28 -22 -13 -13 -32
-30 -42 -38 -20 -16 -151 -119 -169 -133 -5 -4 -22 -17 -36 -30 -15 -12 -41
-33 -59 -47 -17 -14 -40 -32 -49 -40 -10 -8 -33 -26 -51 -40 -19 -14 -45 -35
-58 -47 -14 -13 -29 -20 -35 -16 -5 3 -7 2 -4 -4 3 -5 -3 -16 -15 -24 -11 -8
-26 -20 -34 -26 -7 -7 -17 -13 -22 -13 -6 0 -12 -4 -14 -9 -3 -8 -25 -27 -123
-106 -21 -16 -44 -36 -51 -42 -7 -7 -15 -13 -18 -13 -5 0 -16 -9 -67 -55 -9
-8 -18 -15 -21 -15 -3 0 -25 -18 -48 -39 l-43 -40 99 1 c80 1 99 -1 96 -13 -2
-11 0 -11 10 1 16 19 122 16 113 -3 -4 -7 -1 -5 7 3 19 22 135 16 141 -8 3
-12 5 -10 6 6 0 13 5 21 11 17 5 -3 25 -6 45 -7 22 -1 35 -6 35 -15 0 -7 -6
-12 -12 -10 -7 1 -13 -4 -13 -12 0 -8 6 -15 13 -17 7 -1 8 0 2 3 -14 7 -13 24
2 20 6 -1 14 9 18 23 l7 25 12 -28 c6 -16 15 -26 20 -22 5 3 11 -3 14 -12 3
-14 4 -13 3 2 -1 11 -7 19 -14 18 -7 -2 -12 7 -11 20 0 12 3 17 5 10 4 -8 14
-9 35 -3 25 8 30 6 25 -5 -15 -38 -16 -47 -1 -22 16 28 50 34 50 10 0 -25 17
-27 34 -4 12 16 24 22 35 18 10 -4 15 -11 11 -16 -3 -6 4 -15 15 -21 13 -7 20
-7 20 0 0 5 -7 10 -16 10 -13 0 -14 3 -5 14 16 18 71 18 71 -1 0 -7 -5 -12
-12 -10 -7 1 -13 -8 -14 -20 -1 -15 3 -20 14 -15 11 4 12 7 4 10 -16 5 -16 23
0 19 7 -1 14 9 16 22 3 19 6 21 13 10 6 -9 9 -10 9 -2 0 7 6 10 13 8 6 -3 27
-6 46 -8 19 -1 37 -9 39 -16 3 -9 0 -11 -8 -6 -9 6 -11 4 -5 -5 6 -10 12 -7
26 11 16 21 18 22 24 6 4 -9 12 -17 18 -17 5 0 2 9 -9 21 -21 23 -24 19 50 62
17 9 26 17 21 17 -6 0 -2 5 8 11 9 5 22 7 27 4 6 -4 7 1 3 11 -4 11 -2 15 4
11 6 -4 14 0 17 8 5 13 10 14 27 5 24 -13 50 2 28 15 -8 6 -10 4 -4 -5 5 -8 3
-11 -5 -8 -21 7 -23 25 -4 32 10 4 21 1 27 -6 6 -9 7 -8 3 4 -5 18 60 82 75
72 4 -2 12 3 18 13 5 10 28 29 50 43 23 14 41 28 41 32 0 5 4 8 9 8 6 0 27 16
48 35 21 19 44 35 51 35 7 0 15 7 18 15 4 8 10 13 14 10 4 -3 11 2 14 11 4 9
9 14 13 10 3 -3 13 3 21 15 11 16 17 18 28 8 12 -10 13 -9 8 5 -7 19 -8 19 34
7 20 -6 30 -6 27 0 -4 5 -15 9 -26 9 -28 0 -24 13 11 33 16 10 35 23 42 30 46
44 124 97 135 92 8 -2 12 -1 8 4 -7 13 136 123 152 117 7 -3 12 -1 10 3 -3 14
45 52 59 47 9 -3 11 1 7 11 -4 10 -2 14 4 10 6 -4 14 0 17 9 4 10 13 13 26 9
12 -4 20 -2 20 5 0 6 -4 8 -10 5 -5 -3 -10 -2 -10 4 0 5 9 13 20 16 11 3 20
11 20 16 0 6 4 8 9 5 5 -4 12 0 15 6 4 9 8 10 11 2 3 -6 12 -20 20 -30 15 -19
15 -19 8 0 -5 14 -3 17 7 11 9 -5 11 -4 6 4 -4 6 -11 9 -16 6 -13 -8 -21 27
-9 42 7 7 14 11 17 8 3 -3 18 7 34 22 15 15 28 23 28 18 0 -5 7 1 16 13 8 12
24 22 35 22 13 0 18 4 13 12 -5 8 -2 9 10 5 9 -4 15 -3 11 2 -9 15 42 49 70
46 23 -3 40 12 45 40 1 11 51 58 65 63 6 1 25 16 43 32 29 25 36 27 34 9 -1
-3 6 -6 13 -6 10 0 12 4 5 12 -10 12 -4 25 12 25 5 0 6 -6 2 -12 -4 -8 -3 -9
2 -5 5 5 9 15 9 24 0 9 15 23 32 33 18 9 29 20 26 24 -4 4 1 4 12 0 11 -4 17
-4 13 1 -7 8 33 45 49 45 4 0 -1 -7 -11 -15 -11 -8 -15 -15 -9 -15 6 0 16 7
24 16 11 14 14 13 23 -3 6 -10 11 -24 12 -31 2 -8 5 -17 8 -20 10 -10 1 32
-12 56 -7 12 -17 20 -23 17 -5 -4 -9 -1 -9 6 0 7 8 9 21 6 15 -4 19 -2 15 8
-3 8 -1 17 4 20 6 4 10 1 10 -5 0 -6 5 -8 10 -5 6 4 7 11 4 17 -5 7 -1 9 9 5
9 -3 19 -1 23 5 4 7 3 8 -4 4 -7 -4 -12 -2 -12 3 0 6 4 11 9 11 4 0 25 14 46
30 29 23 40 27 47 18 5 -9 8 -6 8 10 0 12 4 22 9 22 5 0 12 -10 14 -22 4 -19
5 -19 4 3 -2 33 19 60 41 52 9 -3 14 -3 10 2 -9 10 49 55 71 55 8 0 11 3 8 6
-4 4 10 20 31 36 20 16 45 35 54 43 12 10 18 11 21 2 2 -7 -5 -17 -16 -23 -17
-10 -18 -12 -3 -17 10 -4 15 -3 12 2 -3 5 1 12 10 15 8 3 13 10 9 16 -8 13 14
52 25 45 5 -3 12 0 17 7 4 8 23 26 42 41 27 22 36 25 48 15 12 -10 14 -9 13 3
-4 26 0 40 9 34 6 -3 14 2 19 11 6 11 11 13 16 5 4 -6 13 -11 19 -11 7 0 6 4
-3 10 -13 9 -13 12 2 20 9 6 25 18 34 28 10 9 21 17 26 17 4 0 15 10 24 23 18
26 54 27 66 2 6 -11 7 -10 5 5 -2 11 -9 19 -15 17 -7 -1 -12 3 -12 8 0 6 12 9
28 8 21 -2 27 1 26 15 -1 9 12 27 30 39 17 12 34 27 38 33 5 6 8 6 8 -2 0 -7
4 -13 10 -13 5 0 7 6 4 14 -3 8 0 17 7 22 8 4 10 3 5 -4 -4 -7 -2 -12 3 -12 6
0 11 6 11 14 0 22 19 29 38 14 15 -12 16 -11 4 4 -13 17 -1 35 17 24 4 -3 17
1 27 10 18 14 18 15 -3 4 -16 -7 -23 -7 -23 0 0 5 4 10 8 10 8 0 27 14 72 52
8 7 21 12 28 10 8 -2 11 1 7 7 -3 6 1 11 11 11 10 0 14 3 11 7 -9 8 32 37 55
38 13 1 17 -3 13 -14 -4 -13 -2 -13 8 1 8 10 18 14 22 10 5 -4 5 -2 1 5 -3 6
-15 10 -26 8 -11 -2 -20 0 -20 6 0 5 5 9 11 9 6 0 25 11 43 25 20 15 40 23 50
19 9 -3 14 -10 11 -14 -3 -5 0 -12 6 -16 8 -5 9 -3 4 6 -6 10 -4 12 8 7 12 -4
15 -1 12 15 -3 11 -7 23 -11 27 -4 3 -4 -2 -1 -11 7 -20 -1 -23 -23 -7 -10 7
-11 12 -3 15 6 3 21 14 34 25 13 11 29 17 36 14 8 -2 12 -1 8 4 -3 5 7 19 22
31 67 51 87 66 111 88 14 12 32 20 39 18 7 -3 12 0 10 6 -5 22 20 17 51 -12
18 -16 35 -30 38 -30 5 0 41 -29 71 -57 13 -13 26 -23 28 -23 6 0 50 -37 84
-70 15 -13 28 -24 31 -25 3 0 4 -4 2 -8 -1 -5 1 -6 6 -3 11 7 63 -39 54 -48
-4 -4 -2 -6 3 -5 18 5 55 -12 55 -25 0 -8 13 -19 30 -26 16 -7 27 -16 24 -21
-3 -5 0 -9 5 -9 11 0 31 -15 79 -57 14 -13 28 -23 31 -23 3 -1 17 -10 30 -20
18 -16 21 -23 12 -34 -8 -10 -9 -16 -1 -21 6 -4 9 -1 8 6 -6 23 18 19 49 -8
61 -54 73 -63 86 -63 8 0 7 -4 -3 -10 -12 -8 -11 -10 7 -10 13 0 28 -9 35 -20
7 -11 17 -20 23 -20 5 0 30 -18 54 -40 24 -22 48 -40 53 -40 6 0 8 -6 5 -14
-4 -10 0 -12 15 -8 14 3 19 1 14 -6 -5 -8 1 -12 14 -12 12 0 18 -4 15 -10 -3
-5 1 -10 9 -10 14 0 20 -11 17 -32 0 -4 5 -5 13 -2 8 3 25 -6 39 -20 15 -14
30 -26 35 -26 5 0 17 -9 27 -20 10 -11 22 -17 28 -13 6 3 7 1 3 -5 -4 -7 -1
-12 8 -12 14 0 20 -12 17 -33 0 -4 2 -6 6 -5 14 3 53 -13 53 -22 0 -5 9 -12
20 -15 11 -3 20 -13 20 -21 0 -8 7 -14 16 -14 9 0 28 -13 44 -30 15 -16 30
-26 34 -23 3 3 6 1 6 -5 0 -7 12 -9 31 -7 17 2 28 1 25 -2 -3 -3 2 -11 11 -18
13 -10 14 -13 2 -20 -8 -5 -11 -5 -7 0 5 5 -1 15 -13 23 -39 27 -29 5 17 -36
25 -22 43 -34 40 -26 -5 13 6 19 27 15 5 -1 6 9 2 21 -5 20 -4 21 5 5 13 -20
4 -41 -12 -31 -7 5 -9 2 -5 -8 3 -9 0 -21 -6 -27 -9 -9 -8 -11 4 -6 8 3 26 -3
39 -15 13 -11 26 -21 29 -21 3 -1 18 -3 34 -5 l28 -3 -22 30 c-12 17 -24 28
-27 25 -2 -3 1 -12 8 -21 8 -10 9 -15 1 -15 -6 0 -12 5 -12 10 -5 28 -3 35 9
35 6 0 12 3 12 8 0 4 0 10 0 13 0 4 -11 -1 -25 -10 -14 -9 -25 -14 -25 -10 0
4 -7 1 -15 -6 -13 -11 -14 -10 -9 4 4 10 12 15 20 12 20 -8 34 17 18 32 -8 7
-14 11 -14 8 0 -2 -20 15 -43 38 -88 83 -118 106 -130 99 -6 -4 -20 -8 -29 -8
-14 -1 -15 1 -6 12 8 10 13 11 18 2 6 -8 9 -8 15 1 4 7 -1 13 -14 17 -11 3
-18 9 -15 14 3 5 -2 9 -11 9 -9 0 -13 5 -10 10 3 6 0 10 -7 10 -7 0 -19 9 -26
20 -7 11 -17 20 -23 20 -6 0 -19 10 -30 23 -16 19 -20 20 -29 7 -9 -12 -10
-10 -5 8 5 16 2 22 -9 22 -15 0 -21 12 -17 33 1 5 -3 6 -7 3 -5 -3 -20 3 -32
14 -13 11 -27 20 -32 20 -4 0 -8 5 -8 11 0 5 4 8 8 5 5 -3 9 1 9 9 0 13 -3 13
-22 1 -20 -13 -21 -13 -19 7 1 12 3 28 3 36 1 8 4 11 8 8 3 -4 13 -1 21 5 11
10 17 8 28 -7 8 -10 14 -13 14 -6 0 7 4 9 10 6 6 -4 7 1 3 11 -5 13 -3 15 7 9
9 -6 11 -4 5 5 -6 10 -11 10 -20 -3 -11 -15 -25 -13 -25 2 0 4 18 17 40 31 22
14 40 28 40 32 0 5 5 8 11 8 5 0 8 -4 5 -9 -3 -4 4 -17 17 -27 20 -18 21 -18
7 0 -22 28 -20 46 6 56 13 5 24 15 24 21 0 7 3 9 6 6 4 -4 15 3 25 14 10 12
23 18 30 13 8 -4 9 -3 5 4 -10 16 9 15 26 -1 7 -7 29 -24 48 -37 19 -13 37
-27 40 -30 16 -17 121 -90 130 -90 6 0 8 -4 5 -10 -3 -5 -1 -10 4 -10 17 0
106 -72 103 -82 -1 -5 2 -7 7 -3 17 10 52 -17 40 -31 -7 -9 -5 -11 8 -8 17 4
57 -23 109 -72 13 -12 25 -20 27 -18 2 2 16 -7 31 -21 15 -13 36 -29 47 -35
11 -6 16 -16 13 -22 -4 -6 -3 -8 4 -4 6 3 17 -1 25 -9 9 -8 20 -15 26 -15 6 0
11 -4 11 -8 0 -5 11 -15 25 -22 13 -7 22 -18 18 -23 -3 -6 -1 -7 4 -4 6 4 20
-1 31 -11 55 -46 63 -52 72 -52 6 0 13 -7 16 -15 4 -8 11 -15 18 -15 6 0 22
-10 36 -22 14 -13 43 -35 65 -51 22 -15 56 -40 75 -57 l35 -29 -43 1 c-24 0
-46 -2 -49 -5 -3 -4 -15 -2 -26 4 -14 8 -18 8 -13 0 5 -7 -5 -11 -28 -12 -20
-1 -42 -2 -48 -3 -7 -1 -19 3 -27 8 -11 8 -13 8 -7 -1 5 -9 0 -13 -16 -14 -13
-1 -27 -2 -33 -4 -5 -1 -24 -3 -40 -3 -20 -1 -46 -16 -75 -43 -25 -22 -78 -70
-119 -107 -41 -37 -78 -66 -82 -64 -5 1 -8 -1 -7 -5 4 -11 -39 -53 -46 -45 -3
3 -6 -3 -6 -13 0 -10 -2 -16 -6 -13 -3 3 -29 -17 -58 -46 -29 -28 -95 -89
-146 -136 -51 -47 -106 -98 -121 -113 -17 -17 -34 -25 -41 -21 -7 4 -10 3 -5
-1 9 -11 -62 -85 -81 -85 -7 0 -11 -4 -8 -8 2 -4 -9 -19 -27 -32 -17 -14 -64
-57 -106 -97 -41 -40 -80 -69 -85 -66 -6 3 -8 3 -4 -1 5 -7 -25 -46 -36 -46
-2 0 -31 -27 -64 -60 -34 -33 -63 -60 -65 -60 -9 0 -197 -182 -197 -190 0 -3
35 -5 78 -4 55 0 83 -4 97 -15 18 -15 19 -15 6 2 -13 16 -12 18 12 13 15 -2
32 -8 38 -12 7 -4 9 -3 6 3 -7 11 102 11 121 0 6 -5 12 -4 12 1 0 12 34 11 42
-2 5 -7 8 -7 8 2 0 7 4 11 10 7 5 -3 7 -13 4 -23 -2 -9 0 -8 7 4 11 22 50 27
77 11 7 -5 12 -3 12 3 0 7 7 9 16 6 9 -4 28 1 41 9 13 9 27 14 31 11 4 -3 14
0 22 6 12 8 12 9 -2 4 -10 -3 -18 -1 -18 4 0 9 14 14 32 11 5 0 7 2 6 7 -4 13
51 64 61 57 7 -4 8 1 4 12 -3 10 -3 15 1 12 3 -3 37 22 74 57 63 60 92 80 76
52 -4 -8 -3 -10 2 -5 5 5 9 12 9 15 0 17 60 72 73 67 9 -3 12 0 9 9 -4 9 2 17
14 21 10 4 16 11 13 17 -4 7 -2 8 4 4 7 -4 12 -2 12 3 0 6 7 11 16 11 8 0 13
4 10 9 -7 10 18 34 27 25 3 -3 8 4 12 15 3 12 10 21 15 21 5 0 20 10 32 23 13
12 43 38 67 57 23 19 49 41 57 48 8 7 19 10 25 6 8 -5 9 -3 4 5 -8 14 31 61
51 61 6 0 15 7 18 15 5 13 10 14 27 5 11 -7 23 -9 27 -6 3 3 0 6 -7 6 -7 0 -9
5 -5 12 4 7 3 8 -4 4 -23 -14 -11 9 14 27 20 15 28 16 39 7 9 -8 15 -8 15 -2
0 6 -5 12 -12 14 -8 3 -4 12 9 25 12 12 24 19 27 16 3 -4 6 1 6 11 0 9 5 14
10 11 6 -3 13 0 16 8 3 8 16 14 29 13 13 0 21 -4 18 -9 -2 -4 -12 -6 -21 -5
-13 2 -16 -3 -14 -21 2 -20 0 -22 -13 -11 -10 9 -15 9 -15 1 0 -6 5 -11 10
-11 6 0 15 -10 20 -22 7 -18 9 -14 5 19 -3 33 -1 41 11 36 7 -3 11 -10 7 -16
-3 -6 -1 -7 6 -3 6 4 9 11 6 16 -3 5 4 8 15 7 11 -1 20 -5 20 -10 0 -4 5 -5
11 -1 8 4 7 9 -2 15 -7 4 -17 5 -21 3 -4 -3 -8 2 -8 11 0 9 5 13 10 10 6 -3
10 -1 10 5 0 7 -7 9 -15 6 -8 -3 -22 -9 -30 -12 -8 -3 -15 -1 -15 4 0 6 9 13
19 17 11 3 22 13 25 21 3 9 11 12 18 8 7 -5 9 -2 5 9 -4 11 -1 15 12 12 10 -2
24 1 32 7 11 8 10 9 -4 4 -12 -4 -17 -2 -14 6 2 7 15 12 28 10 19 -2 21 0 9 8
-14 9 -7 14 13 11 5 -1 6 2 3 7 -3 5 20 31 51 58 31 27 65 57 75 66 15 15 22
16 43 6 14 -6 25 -15 25 -19 0 -4 9 -11 20 -14 32 -10 23 -26 -12 -20 -22 4
-28 2 -19 -4 8 -5 27 -8 43 -6 15 2 28 -1 28 -6 0 -6 4 -8 8 -5 4 2 23 -9 41
-25 19 -16 38 -29 43 -29 5 0 6 -4 3 -10 -3 -5 2 -10 13 -10 22 0 55 -33 45
-45 -5 -4 -2 -5 4 -1 15 8 57 -17 46 -27 -6 -7 12 -11 31 -8 5 1 6 -5 2 -14
-3 -9 -2 -13 4 -10 6 4 29 -8 53 -27 59 -46 67 -55 59 -63 -4 -4 -2 -6 3 -5
23 5 46 -1 40 -10 -3 -5 -1 -10 4 -10 13 0 128 -86 154 -114 9 -10 17 -16 17
-12 0 7 16 -5 55 -40 13 -12 26 -19 29 -16 3 3 6 1 6 -5 0 -6 10 -13 21 -16
14 -4 20 -11 16 -21 -4 -10 -1 -13 9 -9 17 6 46 -15 38 -28 -3 -5 -2 -9 3 -8
17 3 53 -14 47 -22 -3 -5 2 -9 10 -9 9 0 16 -4 16 -10 0 -5 6 -10 13 -10 6 0
26 -14 44 -30 18 -17 34 -30 37 -30 6 0 37 -24 61 -47 8 -7 18 -13 23 -13 6 0
12 -4 14 -8 2 -4 24 -23 51 -42 26 -18 47 -37 47 -42 0 -4 7 -8 15 -8 8 0 15
-4 15 -10 0 -5 5 -10 10 -10 6 0 51 -31 99 -70 49 -38 94 -70 101 -70 6 0 8
-4 5 -10 -3 -5 -2 -10 4 -10 16 0 81 -47 74 -54 -4 -3 0 -6 7 -6 7 0 33 -16
56 -36 24 -19 44 -31 44 -25 0 6 -3 11 -7 11 -5 0 -28 19 -53 41 -25 22 -67
59 -94 82 -66 57 -124 107 -156 137 -15 14 -44 39 -66 57 -21 17 -57 48 -79
68 -22 20 -58 51 -79 68 -22 18 -59 50 -82 72 -24 22 -58 51 -75 65 -47 36
-60 51 -54 60 3 5 0 12 -6 16 -8 4 -9 3 -5 -4 4 -7 2 -12 -3 -12 -6 0 -11 5
-11 10 0 6 -7 10 -16 10 -14 0 -15 2 -3 17 10 11 10 14 2 9 -8 -4 -13 -2 -13
5 0 7 -2 10 -5 7 -5 -5 -31 16 -121 100 -14 12 -28 22 -32 22 -3 0 -15 9 -27
20 -42 40 -65 60 -70 60 -3 0 -16 11 -29 23 -13 13 -46 41 -72 63 -27 21 -68
58 -91 81 -24 23 -43 39 -43 35 0 -4 -10 3 -22 16 -41 40 -115 106 -154 137
-21 17 -55 46 -76 65 -59 56 -100 85 -119 85 -14 1 -54 30 -183 135 -10 8 -23
20 -30 25 -6 6 -36 30 -66 55 -30 25 -60 49 -67 55 -7 5 -18 15 -25 20 -7 6
-38 30 -68 55 -30 25 -61 50 -68 55 -7 6 -29 24 -48 42 -19 17 -34 29 -34 27
0 -2 -10 5 -22 15 -34 29 -167 138 -213 174 -21 18 -50 42 -62 55 -13 12 -26
22 -29 22 -9 0 -144 114 -144 122 0 4 -7 8 -15 8 -9 0 -18 7 -21 15 -4 8 -10
15 -16 15 -5 0 -21 11 -36 25 -20 19 -38 25 -67 25 -22 0 -69 0 -105 -1 -36 0
-69 0 -75 0 -5 0 -36 1 -68 2 -31 1 -60 -1 -63 -4 -4 -3 -15 -2 -25 3 -10 6
-20 7 -22 3 -3 -5 -46 -6 -97 -3 -51 3 -94 2 -96 -2 -2 -3 -17 -3 -32 1 -47
14 -53 1 -16 -35 20 -19 38 -34 41 -34 3 0 19 -13 35 -30 15 -16 33 -30 38
-30 6 0 10 -4 10 -10 0 -5 7 -10 15 -10 8 0 15 -7 15 -17 0 -9 3 -13 7 -10 3
4 19 -7 35 -23 15 -17 32 -30 36 -30 4 0 18 -13 32 -30 14 -16 30 -30 37 -30
14 0 49 -48 40 -56 -5 -6 -32 14 -73 54 -13 12 -28 22 -34 22 -6 0 -9 4 -6 9
3 5 -3 11 -14 14 -14 4 -18 11 -14 24 5 14 4 15 -4 4 -9 -12 -12 -12 -26 1 -8
9 -12 18 -9 22 4 3 0 6 -8 6 -18 0 -85 59 -81 72 1 5 -2 7 -7 4 -5 -4 -31 13
-58 36 -26 23 -56 49 -67 57 -10 9 -29 25 -41 36 -13 12 -38 32 -56 45 -18 14
-37 30 -43 35 -6 6 -40 35 -76 65 -36 30 -72 63 -81 72 -9 10 -20 18 -23 18
-4 0 -13 6 -20 13 -17 16 -104 90 -201 169 -21 18 -52 45 -68 61 -57 54 -36
52 -590 53 -285 0 -520 -3 -523 -8z m296 -748 c0 -5 -4 -10 -10 -10 -5 0 -10
5 -10 10 0 6 5 10 10 10 6 0 10 -4 10 -10z m2035 -380 c10 -11 16 -20 13 -20
-3 0 -13 9 -23 20 -10 11 -16 20 -13 20 3 0 13 -9 23 -20z m135 -75 c0 -2 -9
-3 -19 -2 -11 0 -18 5 -15 9 4 6 34 0 34 -7z m-55 -5 c-3 -5 -12 -10 -18 -10
-7 0 -6 4 3 10 19 12 23 12 15 0z m55 -25 c0 -1 -9 -5 -19 -8 -13 -3 -18 -1
-14 9 4 10 33 10 33 -1z m44 -17 c-5 -8 -1 -9 12 -4 14 5 16 4 7 -5 -13 -13
-37 -3 -28 12 4 5 8 9 11 9 3 0 2 -5 -2 -12z m31 -28 c-3 -5 -12 -10 -18 -10
-7 0 -6 4 3 10 19 12 23 12 15 0z m19 -15 c-4 -8 -11 -15 -16 -15 -6 0 -5 6 2
15 7 8 14 15 16 15 2 0 1 -7 -2 -15z m-17 -31 c-3 -3 -12 -4 -19 -1 -8 3 -5 6
6 6 11 1 17 -2 13 -5z m77 -70 c5 -14 4 -15 -9 -4 -17 14 -19 20 -6 20 5 0 12
-7 15 -16z m-3510 -248 c-3 -7 -11 -13 -19 -13 -18 0 -19 4 -2 21 14 16 28 11
21 -8z m-1784 -1107 c0 8 2 12 5 9 7 -7 -5 -38 -14 -38 -4 0 -8 10 -8 22 -2
18 0 20 7 8 8 -12 10 -13 10 -1z m290 7 c0 -3 -4 -8 -10 -11 -5 -3 -10 -1 -10
4 0 6 5 11 10 11 6 0 10 -2 10 -4z"/>
<path d="M6270 9540 c0 -5 5 -10 11 -10 5 0 7 5 4 10 -3 6 -8 10 -11 10 -2 0
-4 -4 -4 -10z"/>
<path d="M6230 9526 c0 -2 7 -7 16 -10 8 -3 12 -2 9 4 -6 10 -25 14 -25 6z"/>
<path d="M6189 9503 c-13 -16 -12 -17 3 -5 9 8 23 10 29 6 8 -4 9 -3 5 4 -10
17 -21 15 -37 -5z"/>
<path d="M6250 9496 c0 -2 8 -10 18 -17 15 -13 16 -12 3 4 -13 16 -21 21 -21
13z"/>
<path d="M6200 9485 c0 -2 6 -8 13 -14 10 -8 14 -7 14 2 0 8 -6 14 -14 14 -7
0 -13 -1 -13 -2z"/>
<path d="M6134 9455 c-4 -8 -11 -12 -17 -8 -6 3 -7 1 -3 -6 4 -6 11 -9 16 -6
4 3 11 -1 14 -7 3 -7 3 -2 0 11 -5 17 -3 21 6 16 9 -5 11 -4 6 3 -10 16 -15
15 -22 -3z"/>
<path d="M6196 9441 c-3 -5 2 -15 12 -22 15 -12 16 -12 5 2 -7 9 -10 19 -6 22
3 4 4 7 0 7 -3 0 -8 -4 -11 -9z"/>
<path d="M6235 9431 c-3 -5 -2 -12 3 -15 5 -3 9 1 9 9 0 17 -3 19 -12 6z"/>
<path d="M6053 9404 c-3 -8 -2 -19 3 -24 5 -5 9 1 9 16 0 28 -3 30 -12 8z"/>
<path d="M6173 9407 c0 -8 6 -14 14 -14 9 0 10 4 2 14 -6 7 -12 13 -14 13 -1
0 -2 -6 -2 -13z"/>
<path d="M6078 9398 c-8 -5 -1 -6 16 -4 17 3 35 1 41 -4 8 -6 12 -5 12 3 0 15
-49 18 -69 5z"/>
<path d="M6250 9380 c0 -5 5 -10 11 -10 5 0 7 5 4 10 -3 6 -8 10 -11 10 -2 0
-4 -4 -4 -10z"/>
<path d="M6115 9357 c1 -12 -3 -29 -8 -37 -9 -12 -9 -13 3 -3 16 15 23 50 12
57 -5 3 -8 -5 -7 -17z"/>
<path d="M6076 9335 c-3 -9 -10 -14 -15 -11 -4 3 -17 -4 -27 -17 -19 -22 -19
-22 2 -4 11 9 23 15 26 12 3 -3 11 1 18 10 7 9 11 18 8 21 -3 3 -8 -2 -12 -11z"/>
<path d="M6216 9338 c3 -5 10 -6 15 -3 13 9 11 12 -6 12 -8 0 -12 -4 -9 -9z"/>
<path d="M6390 9340 c0 -5 9 -8 20 -7 21 1 18 10 -5 13 -8 1 -15 -2 -15 -6z"/>
<path d="M6454 9338 c-4 -7 -4 -10 1 -6 4 4 15 2 24 -5 14 -11 14 -10 2 6 -16
20 -18 21 -27 5z"/>
<path d="M5986 9322 c-3 -5 1 -9 9 -9 8 0 15 4 15 9 0 4 -4 8 -9 8 -6 0 -12
-4 -15 -8z"/>
<path d="M6539 9328 c-5 -18 -6 -38 -1 -34 7 8 12 36 6 36 -2 0 -4 -1 -5 -2z"/>
<path d="M6574 9316 c1 -8 5 -18 8 -22 4 -3 5 1 4 10 -1 8 -5 18 -8 22 -4 3
-5 -1 -4 -10z"/>
<path d="M5980 9291 c0 -6 4 -13 10 -16 6 -3 7 1 4 9 -7 18 -14 21 -14 7z"/>
<path d="M5874 9278 c-4 -7 -4 -10 1 -6 4 4 14 0 22 -10 13 -15 13 -15 3 6
-12 25 -16 27 -26 10z"/>
<path d="M6045 9280 c-3 -6 1 -7 9 -4 18 7 21 14 7 14 -6 0 -13 -4 -16 -10z"/>
<path d="M6533 9249 c-2 -23 3 -25 10 -4 4 8 3 16 -1 19 -4 3 -9 -4 -9 -15z"/>
<path d="M6579 9268 c-5 -18 -6 -38 -1 -34 7 8 12 36 6 36 -2 0 -4 -1 -5 -2z"/>
<path d="M5866 9241 c5 -18 3 -22 -7 -16 -8 5 -11 4 -6 0 4 -5 16 -9 27 -10
14 -1 17 2 10 10 -5 7 -6 16 -2 20 4 5 2 5 -5 2 -6 -4 -14 -1 -17 5 -3 7 -3 2
0 -11z"/>
<path d="M5930 9238 c0 -6 3 -8 7 -5 3 4 13 1 22 -6 14 -11 14 -10 2 6 -15 20
-31 22 -31 5z"/>
<path d="M6010 9226 c0 -2 7 -7 16 -10 8 -3 12 -2 9 4 -6 10 -25 14 -25 6z"/>
<path d="M6616 9218 c3 -5 10 -6 15 -3 13 9 11 12 -6 12 -8 0 -12 -4 -9 -9z"/>
<path d="M5787 9200 c-15 -14 -16 -20 -5 -26 7 -4 10 -4 6 1 -4 4 0 14 10 21
9 7 15 14 12 17 -3 2 -13 -4 -23 -13z"/>
<path d="M5830 9211 c0 -5 5 -13 10 -16 6 -3 10 -2 10 4 0 5 -4 13 -10 16 -5
3 -10 2 -10 -4z"/>
<path d="M5930 9179 c0 -5 5 -7 10 -4 6 3 10 8 10 11 0 2 -4 4 -10 4 -5 0 -10
-5 -10 -11z"/>
<path d="M5766 9157 c3 -10 9 -15 12 -12 3 3 0 11 -7 18 -10 9 -11 8 -5 -6z"/>
<path d="M5796 9161 c-3 -4 6 -7 19 -7 14 0 22 2 19 5 -8 8 -34 10 -38 2z"/>
<path d="M5890 9159 c0 -5 5 -7 10 -4 6 3 10 8 10 11 0 2 -4 4 -10 4 -5 0 -10
-5 -10 -11z"/>
<path d="M5708 9114 c-6 -22 12 -28 29 -9 4 4 3 5 -4 1 -7 -3 -13 1 -15 11 -3
15 -5 15 -10 -3z"/>
<path d="M5830 9105 c0 -7 30 -13 34 -7 3 4 -4 9 -15 9 -10 1 -19 0 -19 -2z"/>
<path d="M6856 9095 c-9 -26 -7 -32 5 -12 6 10 9 21 6 23 -2 3 -7 -2 -11 -11z"/>
<path d="M5671 9071 c-9 -17 -8 -18 11 -13 13 3 17 7 10 10 -7 2 -10 8 -6 13
3 5 3 9 0 9 -3 0 -10 -9 -15 -19z"/>
<path d="M5750 9086 c0 -2 7 -7 16 -10 8 -3 12 -2 9 4 -6 10 -25 14 -25 6z"/>
<path d="M5796 9078 c3 -5 10 -6 15 -3 13 9 11 12 -6 12 -8 0 -12 -4 -9 -9z"/>
<path d="M6770 9079 c0 -5 5 -7 10 -4 6 3 10 8 10 11 0 2 -4 4 -10 4 -5 0 -10
-5 -10 -11z"/>
<path d="M5590 9050 c-8 -5 -10 -10 -5 -10 6 0 17 5 25 10 8 5 11 10 5 10 -5
0 -17 -5 -25 -10z"/>
<path d="M5636 9047 c3 -10 9 -15 12 -12 3 3 0 11 -7 18 -10 9 -11 8 -5 -6z"/>
<path d="M5666 9018 c3 -5 10 -6 15 -3 13 9 11 12 -6 12 -8 0 -12 -4 -9 -9z"/>
<path d="M5726 9022 c-3 -5 1 -9 9 -9 8 0 12 4 9 9 -3 4 -7 8 -9 8 -2 0 -6 -4
-9 -8z"/>
<path d="M6899 9028 c-5 -18 -6 -38 -1 -34 7 8 12 36 6 36 -2 0 -4 -1 -5 -2z"/>
<path d="M5570 9000 c0 -5 5 -10 10 -10 6 0 10 5 10 10 0 6 -4 10 -10 10 -5 0
-10 -4 -10 -10z"/>
<path d="M5635 9000 c-3 -5 -1 -10 4 -10 6 0 11 5 11 10 0 6 -2 10 -4 10 -3 0
-8 -4 -11 -10z"/>
<path d="M7690 8979 c0 -5 5 -7 10 -4 6 3 10 8 10 11 0 2 -4 4 -10 4 -5 0 -10
-5 -10 -11z"/>
<path d="M5630 8976 c0 -2 8 -10 18 -17 15 -13 16 -12 3 4 -13 16 -21 21 -21
13z"/>
<path d="M5455 8960 c3 -5 8 -10 11 -10 2 0 4 5 4 10 0 6 -5 10 -11 10 -5 0
-7 -4 -4 -10z"/>
<path d="M7596 8953 c-6 -14 -5 -15 5 -6 7 7 10 15 7 18 -3 3 -9 -2 -12 -12z"/>
<path d="M5480 8951 c0 -6 4 -13 10 -16 6 -3 7 1 4 9 -7 18 -14 21 -14 7z"/>
<path d="M5555 8940 c6 -30 16 -40 12 -12 -2 12 -6 24 -10 28 -3 4 -4 -4 -2
-16z"/>
<path d="M5436 8933 c-6 -14 -5 -15 5 -6 7 7 10 15 7 18 -3 3 -9 -2 -12 -12z"/>
<path d="M5615 8940 c3 -5 8 -10 11 -10 2 0 4 5 4 10 0 6 -5 10 -11 10 -5 0
-7 -4 -4 -10z"/>
<path d="M7475 8940 c-3 -5 -1 -10 4 -10 6 0 11 5 11 10 0 6 -2 10 -4 10 -3 0
-8 -4 -11 -10z"/>
<path d="M7735 8941 c-3 -5 -2 -12 3 -15 5 -3 9 1 9 9 0 17 -3 19 -12 6z"/>
<path d="M5460 8922 c0 -5 7 -9 15 -9 8 0 12 4 9 9 -3 4 -9 8 -15 8 -5 0 -9
-4 -9 -8z"/>
<path d="M7590 8926 c0 -2 7 -7 16 -10 8 -3 12 -2 9 4 -6 10 -25 14 -25 6z"/>
<path d="M5434 8876 c1 -19 3 -32 6 -29 8 7 8 63 0 63 -4 0 -6 -15 -6 -34z"/>
<path d="M5390 8879 c0 -13 -4 -18 -12 -13 -7 4 -9 3 -5 -1 17 -19 34 -13 29
11 -5 29 -12 31 -12 3z"/>
<path d="M5553 8885 c0 -8 4 -12 9 -9 5 3 6 10 3 15 -9 13 -12 11 -12 -6z"/>
<path d="M7535 8889 c-4 -6 -5 -12 -2 -15 2 -3 7 2 10 11 7 17 1 20 -8 4z"/>
<path d="M6955 8880 c-3 -5 -1 -10 4 -10 6 0 11 5 11 10 0 6 -2 10 -4 10 -3 0
-8 -4 -11 -10z"/>
<path d="M7425 8859 c-3 -4 2 -6 10 -5 21 3 28 13 10 13 -9 0 -18 -4 -20 -8z"/>
<path d="M7482 8858 c-15 -15 -15 -28 0 -28 6 0 8 3 5 7 -4 3 -2 12 4 20 14
16 7 17 -9 1z"/>
<path d="M5321 8844 c0 -11 3 -14 6 -6 3 7 2 16 -1 19 -3 4 -6 -2 -5 -13z"/>
<path d="M7100 8846 c0 -2 8 -10 18 -17 15 -13 16 -12 3 4 -13 16 -21 21 -21
13z"/>
<path d="M7153 8843 c4 -3 1 -13 -6 -22 -11 -14 -10 -14 6 -2 20 15 22 31 5
31 -6 0 -8 -3 -5 -7z"/>
<path d="M5495 8821 c-3 -5 -2 -12 3 -15 5 -3 9 1 9 9 0 17 -3 19 -12 6z"/>
<path d="M5336 8793 c-6 -14 -5 -15 5 -6 7 7 10 15 7 18 -3 3 -9 -2 -12 -12z"/>
<path d="M7110 8801 c0 -6 4 -13 10 -16 6 -3 7 1 4 9 -7 18 -14 21 -14 7z"/>
<path d="M7200 8805 c0 -2 6 -8 13 -14 10 -8 14 -7 14 2 0 8 -6 14 -14 14 -7
0 -13 -1 -13 -2z"/>
<path d="M5228 8783 c7 -3 16 -2 19 1 4 3 -2 6 -13 5 -11 0 -14 -3 -6 -6z"/>
<path d="M5268 8783 c7 -3 16 -2 19 1 4 3 -2 6 -13 5 -11 0 -14 -3 -6 -6z"/>
<path d="M5289 8763 c-13 -16 -12 -17 4 -4 16 13 21 21 13 21 -2 0 -10 -8 -17
-17z"/>
<path d="M5355 8771 c-3 -5 -2 -12 3 -15 5 -3 9 1 9 9 0 17 -3 19 -12 6z"/>
<path d="M5230 8756 c4 -4 16 -4 26 2 16 9 14 10 -8 9 -15 -1 -23 -6 -18 -11z"/>
<path d="M5386 8758 c3 -5 10 -6 15 -3 13 9 11 12 -6 12 -8 0 -12 -4 -9 -9z"/>
<path d="M7116 8747 c3 -10 9 -15 12 -12 3 3 0 11 -7 18 -10 9 -11 8 -5 -6z"/>
<path d="M7176 8742 c-3 -5 1 -9 9 -9 8 0 12 4 9 9 -3 4 -7 8 -9 8 -2 0 -6 -4
-9 -8z"/>
<path d="M5180 8715 c0 -8 2 -15 4 -15 2 0 6 7 10 15 3 8 1 15 -4 15 -6 0 -10
-7 -10 -15z"/>
<path d="M7266 8722 c-3 -5 1 -9 9 -9 8 0 12 4 9 9 -3 4 -7 8 -9 8 -2 0 -6 -4
-9 -8z"/>
<path d="M7216 8702 c-2 -4 -1 -14 4 -22 7 -11 9 -9 7 8 -1 24 -3 26 -11 14z"/>
<path d="M5145 8680 c-3 -6 1 -7 9 -4 18 7 21 14 7 14 -6 0 -13 -4 -16 -10z"/>
<path d="M5270 8680 c0 -5 5 -10 11 -10 5 0 7 5 4 10 -3 6 -8 10 -11 10 -2 0
-4 -4 -4 -10z"/>
<path d="M7305 8680 c-3 -6 1 -7 9 -4 18 7 21 14 7 14 -6 0 -13 -4 -16 -10z"/>
<path d="M5066 8672 c-3 -5 1 -9 9 -9 8 0 12 4 9 9 -3 4 -7 8 -9 8 -2 0 -6 -4
-9 -8z"/>
<path d="M5153 8645 c0 -8 4 -15 9 -15 4 0 8 4 8 9 0 6 -4 12 -8 15 -5 3 -9
-1 -9 -9z"/>
<path d="M5070 8638 c0 -11 12 -10 30 2 12 7 10 9 -8 7 -12 0 -22 -5 -22 -9z"/>
<path d="M5034 8615 c-4 -8 -11 -12 -17 -8 -6 3 -7 1 -3 -5 4 -6 13 -9 21 -6
8 4 13 10 10 14 -3 5 1 11 7 13 10 4 10 6 0 6 -7 1 -15 -6 -18 -14z"/>
<path d="M5106 8618 c3 -4 9 -8 15 -8 5 0 9 4 9 8 0 5 -7 9 -15 9 -8 0 -12 -4
-9 -9z"/>
<path d="M7435 8600 c3 -5 8 -10 11 -10 2 0 4 5 4 10 0 6 -5 10 -11 10 -5 0
-7 -4 -4 -10z"/>
<path d="M4990 8580 c0 -5 5 -10 10 -10 6 0 10 5 10 10 0 6 -4 10 -10 10 -5 0
-10 -4 -10 -10z"/>
<path d="M5073 8583 c4 -3 -1 -16 -10 -27 -18 -21 -18 -21 4 -2 20 16 23 36 6
36 -4 0 -3 -3 0 -7z"/>
<path d="M5135 8580 c3 -5 8 -10 11 -10 2 0 4 5 4 10 0 6 -5 10 -11 10 -5 0
-7 -4 -4 -10z"/>
<path d="M4950 8551 c0 -5 7 -11 14 -14 10 -4 13 -1 9 9 -6 15 -23 19 -23 5z"/>
<path d="M5093 8545 c0 -8 4 -12 9 -9 5 3 6 10 3 15 -9 13 -12 11 -12 -6z"/>
<path d="M5000 8540 c-9 -6 -10 -10 -3 -10 6 0 15 5 18 10 8 12 4 12 -15 0z"/>
<path d="M4913 8512 c-1 -22 0 -24 9 -8 6 10 6 22 2 26 -5 5 -10 -3 -11 -18z"/>
<path d="M4825 8491 c-3 -5 0 -13 6 -17 7 -4 9 -3 5 4 -3 5 0 13 6 15 9 4 10
6 1 6 -6 1 -14 -3 -18 -8z"/>
<path d="M4969 8483 c-13 -16 -12 -17 4 -4 9 7 17 15 17 17 0 8 -8 3 -21 -13z"/>
<path d="M4860 8475 c-11 -13 -10 -14 5 -9 11 5 16 4 12 -3 -3 -5 0 -10 8 -10
12 0 12 3 3 16 -7 9 -13 17 -14 19 -1 1 -7 -4 -14 -13z"/>
<path d="M4790 8452 c0 -6 9 -12 20 -15 11 -3 20 -3 20 -1 0 2 -9 8 -20 14
-11 6 -20 7 -20 2z"/>
<path d="M4842 8444 c10 -10 20 -16 22 -13 3 3 -5 11 -17 18 -21 13 -21 12 -5
-5z"/>
<path d="M4773 8414 c-3 -8 -2 -19 3 -24 5 -5 9 1 9 16 0 28 -3 30 -12 8z"/>
<path d="M4833 8395 c0 -8 4 -12 9 -9 4 3 8 9 8 15 0 5 -4 9 -8 9 -5 0 -9 -7
-9 -15z"/>
<path d="M4865 8400 c-3 -6 1 -7 9 -4 18 7 21 14 7 14 -6 0 -13 -4 -16 -10z"/>
<path d="M7908 8393 c-16 -4 -16 -6 -1 -30 9 -13 18 -37 19 -51 l3 -27 -19 25
c-11 14 -20 20 -20 13 0 -17 30 -44 41 -38 8 6 13 -9 10 -28 -1 -5 3 -6 8 -3
5 3 19 -3 32 -13 13 -10 29 -20 34 -22 6 -2 9 -10 7 -19 -2 -13 -2 -13 7 0 7
10 11 11 11 3 0 -7 16 -23 35 -36 19 -13 33 -26 30 -28 -2 -3 5 -6 15 -7 43
-4 50 -6 50 -13 0 -4 -3 -9 -7 -12 -5 -2 -2 -2 6 0 8 2 11 -2 8 -11 -4 -10 0
-12 14 -9 11 3 22 9 25 14 3 5 -2 6 -11 3 -11 -5 -14 -2 -9 10 3 9 10 14 14
11 5 -3 11 -1 14 4 4 5 -1 8 -10 7 -8 -1 -19 -8 -24 -15 -6 -11 -8 -11 -12 0
-3 8 2 19 10 25 12 9 12 13 2 19 -9 6 -11 4 -5 -5 6 -10 4 -12 -9 -7 -10 4
-21 7 -24 7 -4 0 0 5 8 11 13 9 12 10 -2 5 -11 -3 -19 2 -24 16 -5 16 -8 18
-15 7 -6 -10 -9 -8 -9 9 0 12 -5 21 -12 20 -7 -2 -12 2 -13 9 0 6 -4 15 -8 20
-5 4 -14 8 -20 8 -7 1 -10 7 -9 15 2 8 0 12 -4 7 -10 -10 -45 23 -37 36 3 5 1
7 -4 4 -13 -8 -85 52 -77 64 3 5 4 8 2 8 -2 -1 -11 -3 -20 -6z m66 -84 c-2 -4
0 -10 6 -14 5 -3 10 -1 10 6 0 7 15 -1 33 -19 17 -17 35 -31 40 -32 4 0 6 -2
5 -4 -2 -2 5 -13 15 -23 9 -11 14 -23 10 -26 -3 -4 0 -8 8 -8 8 -1 16 -2 19
-2 13 -1 48 -47 39 -52 -5 -4 -9 -1 -9 5 0 6 -4 9 -9 6 -11 -7 -79 39 -104 70
-11 14 -22 23 -25 20 -10 -11 -31 16 -25 32 6 15 4 15 -9 4 -12 -10 -18 -10
-23 -1 -4 6 -1 15 6 20 14 8 12 10 -13 13 -16 1 -23 26 -7 26 7 0 2 12 -12 28
-16 18 -12 16 13 -7 21 -19 35 -38 32 -42z"/>
<path d="M7946 8322 c-3 -5 1 -9 9 -9 8 0 12 4 9 9 -3 4 -7 8 -9 8 -2 0 -6 -4
-9 -8z"/>
<path d="M7998 8283 c9 -4 10 -8 2 -18 -8 -9 -8 -15 0 -20 5 -3 10 -3 10 1 0
5 21 -12 47 -36 26 -25 41 -37 34 -27 -7 9 -10 17 -6 17 5 0 1 8 -8 18 -10 10
-14 22 -10 27 5 4 3 5 -3 2 -6 -4 -22 5 -34 18 -13 14 -28 25 -34 24 -6 0 -5
-3 2 -6z m53 -50 l34 -38 -36 33 c-19 18 -39 29 -44 25 -4 -5 -5 -2 -1 5 10
16 7 17 47 -25z"/>
<path d="M8110 8166 c0 -2 7 -7 16 -10 8 -3 12 -2 9 4 -6 10 -25 14 -25 6z"/>
<path d="M4750 8383 c0 -6 6 -15 13 -20 15 -9 53 -16 45 -7 -3 3 -14 7 -23 8
-9 1 -21 9 -26 17 -5 9 -9 10 -9 2z"/>
<path d="M4835 8359 c-3 -4 2 -6 10 -5 21 3 28 13 10 13 -9 0 -18 -4 -20 -8z"/>
<path d="M4672 8318 c2 -15 7 -30 11 -34 3 -3 4 6 1 22 -7 37 -16 47 -12 12z"/>
<path d="M4786 8322 c-3 -5 1 -9 9 -9 8 0 12 4 9 9 -3 4 -7 8 -9 8 -2 0 -6 -4
-9 -8z"/>
<path d="M4590 8300 c0 -5 5 -10 11 -10 5 0 7 5 4 10 -3 6 -8 10 -11 10 -2 0
-4 -4 -4 -10z"/>
<path d="M4570 8291 c0 -7 -5 -9 -12 -5 -7 5 -8 3 -3 -5 5 -9 10 -10 18 -2 6
6 8 14 4 18 -4 3 -7 1 -7 -6z"/>
<path d="M4714 8280 c0 -13 4 -16 10 -10 7 7 7 13 0 20 -6 6 -10 3 -10 -10z"/>
<path d="M4750 8280 c0 -5 5 -10 11 -10 5 0 7 5 4 10 -3 6 -8 10 -11 10 -2 0
-4 -4 -4 -10z"/>
<path d="M4867 8279 c7 -7 15 -10 18 -7 3 3 -2 9 -12 12 -14 6 -15 5 -6 -5z"/>
<path d="M4575 8259 c-4 -6 -5 -12 -2 -15 2 -3 7 2 10 11 7 17 1 20 -8 4z"/>
<path d="M4596 8251 c-5 -8 0 -50 7 -58 3 -2 4 12 3 32 -1 37 -2 40 -10 26z"/>
<path d="M5778 8239 c-6 -4 -19 -4 -29 -2 -20 6 -22 -26 -20 -389 1 -76 -3
-118 -9 -118 -6 0 -5 -6 2 -14 7 -8 16 -12 20 -10 3 2 9 -2 11 -8 4 -10 8 -10
16 1 8 13 12 12 28 -5 10 -11 15 -15 10 -8 -4 7 -1 14 7 17 8 3 17 1 20 -6 3
-9 5 -9 5 0 1 9 8 10 24 4 13 -5 30 -5 37 -1 8 5 22 4 32 -1 11 -6 18 -6 18 0
0 16 35 7 42 -11 4 -10 13 -18 20 -17 10 0 10 2 1 6 -14 5 -18 24 -5 22 4 -1
9 0 12 1 3 1 24 3 48 3 27 1 42 -2 42 -10 0 -7 9 -17 20 -23 16 -9 18 -8 14 5
-3 8 -11 12 -16 9 -6 -4 -9 -1 -6 6 7 23 24 22 37 -2 6 -13 10 -15 7 -6 -3 9
2 19 10 22 8 3 14 1 14 -5 0 -5 13 -3 30 6 16 8 32 15 36 14 3 0 8 2 10 5 2 3
1 4 -3 1 -8 -6 -33 14 -33 27 0 5 4 7 8 4 5 -3 9 1 9 9 0 8 -4 12 -9 9 -13 -8
-10 10 5 25 8 10 8 12 0 7 -15 -8 -14 36 2 46 6 5 6 8 -2 8 -7 0 -13 5 -13 11
0 5 4 8 8 5 5 -3 9 1 9 9 0 8 -3 12 -7 10 -4 -2 -7 9 -8 26 -1 27 1 29 16 17
15 -11 15 -10 0 8 -21 24 -23 38 -5 28 10 -6 10 -4 0 7 -20 20 -16 38 7 34 12
-2 18 0 15 6 -4 5 -11 7 -16 4 -5 -4 -12 1 -16 10 -3 10 0 21 8 26 10 6 10 9
2 9 -9 0 -12 22 -12 73 2 89 -6 111 -32 96 -10 -5 -19 -6 -19 -2 0 11 -163 10
-171 -1 -4 -5 -13 -5 -20 -1 -15 10 -197 13 -211 4z"/>
<path d="M6360 8240 l-25 -5 0 -122 c0 -73 -3 -119 -9 -116 -5 4 -6 1 -1 -8
16 -24 11 -90 -6 -100 -9 -4 -20 -5 -24 -1 -5 4 -5 1 -1 -6 5 -9 12 -9 27 -2
21 12 25 1 7 -19 -7 -8 -8 -11 -3 -8 6 3 10 -18 9 -56 0 -35 -5 -61 -11 -60
-5 1 -10 -5 -10 -12 0 -11 4 -12 14 -4 10 9 13 8 13 -4 0 -8 9 -17 20 -20 11
-3 18 -1 14 4 -10 16 8 9 23 -8 8 -10 11 -12 7 -4 -5 11 -2 13 14 9 12 -4 20
-2 16 3 -7 11 -1 11 29 0 13 -5 30 -5 37 -1 8 5 22 4 32 -1 10 -5 18 -6 18 -1
0 4 9 8 20 8 12 0 20 -7 20 -18 0 -23 -20 -34 -21 -11 0 17 -1 17 -8 0 -4 -10
-11 -17 -16 -15 -5 2 -11 -5 -13 -14 -2 -10 1 -18 7 -18 6 0 8 6 5 14 -3 9 2
13 18 12 14 -1 26 7 34 22 6 13 14 23 18 23 3 -1 7 -1 9 0 1 0 21 2 44 2 33 2
43 -2 47 -17 2 -10 9 -15 14 -12 6 3 13 1 15 -4 3 -6 4 -5 3 2 -2 7 -9 12 -15
10 -14 -3 -15 15 -1 23 6 4 18 -2 28 -12 9 -11 14 -14 9 -7 -4 7 -1 14 8 18 8
3 15 0 15 -6 0 -7 4 -7 14 1 11 9 15 9 18 0 2 -6 9 0 16 15 6 14 8 26 4 26 -9
0 -7 144 2 159 4 6 3 11 -2 11 -5 0 -9 7 -9 15 0 8 4 15 8 15 5 0 6 7 2 16 -3
9 -7 75 -8 147 -1 73 -3 134 -4 137 -2 7 -89 2 -102 -6 -7 -4 -10 -3 -6 2 3 5
-10 9 -28 9 -18 0 -31 -3 -28 -7 2 -5 -6 -5 -19 0 -29 9 -140 8 -156 -2 -7 -4
-17 -4 -24 0 -17 11 -59 11 -65 1 -3 -5 -8 -5 -12 0 -3 5 -17 6 -31 3z"/>
<path d="M4475 8220 c-3 -5 -1 -10 4 -10 6 0 11 5 11 10 0 6 -2 10 -4 10 -3 0
-8 -4 -11 -10z"/>
<path d="M4550 8226 c0 -2 7 -7 16 -10 8 -3 12 -2 9 4 -6 10 -25 14 -25 6z"/>
<path d="M4496 8203 c-6 -14 -5 -15 5 -6 7 7 10 15 7 18 -3 3 -9 -2 -12 -12z"/>
<path d="M4522 8200 c-9 -15 -9 -21 1 -26 6 -4 9 -4 5 1 -4 4 -3 14 4 22 6 7
9 15 7 18 -3 2 -10 -4 -17 -15z"/>
<path d="M4450 8200 c0 -5 5 -10 11 -10 5 0 7 5 4 10 -3 6 -8 10 -11 10 -2 0
-4 -4 -4 -10z"/>
<path d="M4428 8173 c6 -2 18 -2 25 0 6 3 1 5 -13 5 -14 0 -19 -2 -12 -5z"/>
<path d="M4479 8167 c8 -9 16 -15 19 -12 3 3 12 -1 21 -8 14 -11 14 -10 2 6
-8 9 -16 15 -19 12 -3 -3 -12 1 -21 8 -14 11 -14 10 -2 -6z"/>
<path d="M4395 8160 c-3 -5 -1 -10 4 -10 6 0 11 5 11 10 0 6 -2 10 -4 10 -3 0
-8 -4 -11 -10z"/>
<path d="M4370 8140 c0 -5 5 -10 11 -10 5 0 7 5 4 10 -3 6 -8 10 -11 10 -2 0
-4 -4 -4 -10z"/>
<path d="M4434 8106 c3 -16 8 -31 11 -35 3 -3 4 7 1 23 -3 16 -8 31 -11 35 -3
3 -4 -7 -1 -23z"/>
<path d="M4390 8102 c0 -5 7 -9 15 -9 8 0 12 4 9 9 -3 4 -9 8 -15 8 -5 0 -9
-4 -9 -8z"/>
<path d="M4470 8099 c0 -5 5 -7 10 -4 6 3 10 8 10 11 0 2 -4 4 -10 4 -5 0 -10
-5 -10 -11z"/>
<path d="M4347 8071 c-4 -17 -3 -21 5 -13 5 5 8 16 6 23 -3 8 -7 3 -11 -10z"/>
<path d="M4370 8081 c0 -6 4 -13 10 -16 6 -3 7 1 4 9 -7 18 -14 21 -14 7z"/>
<path d="M4264 8069 c-3 -6 -3 -13 0 -16 3 -4 6 -1 6 5 0 6 7 9 15 6 8 -4 15
-4 15 -1 0 11 -30 16 -36 6z"/>
<path d="M4280 8040 c-8 -5 -10 -10 -5 -10 6 0 17 5 25 10 8 5 11 10 5 10 -5
0 -17 -5 -25 -10z"/>
<path d="M8841 8036 c-9 -10 -8 -15 3 -19 11 -4 13 -1 9 10 -5 12 -3 14 7 8 9
-5 11 -4 6 3 -9 15 -11 15 -25 -2z"/>
<path d="M4347 8019 c7 -7 15 -10 18 -7 3 3 -2 9 -12 12 -14 6 -15 5 -6 -5z"/>
<path d="M4410 8026 c0 -2 7 -7 16 -10 8 -3 12 -2 9 4 -6 10 -25 14 -25 6z"/>
<path d="M6296 8022 c-3 -5 1 -9 9 -9 8 0 12 4 9 9 -3 4 -7 8 -9 8 -2 0 -6 -4
-9 -8z"/>
<path d="M4183 8003 c-3 -10 -8 -22 -11 -27 -3 -5 0 -6 5 -3 11 7 25 47 17 47
-3 0 -7 -8 -11 -17z"/>
<path d="M4296 8007 c3 -10 9 -15 12 -12 3 3 0 11 -7 18 -10 9 -11 8 -5 -6z"/>
<path d="M4271 7987 c-8 -10 -7 -14 2 -14 8 0 14 6 14 14 0 7 -1 13 -2 13 -2
0 -8 -6 -14 -13z"/>
<path d="M8795 7980 c-3 -6 1 -7 9 -4 18 7 21 14 7 14 -6 0 -13 -4 -16 -10z"/>
<path d="M8870 7983 c5 -2 8 -9 5 -13 -3 -5 3 -13 13 -19 14 -7 19 -6 19 4 0
7 -7 11 -14 8 -8 -3 -13 0 -11 7 2 7 -3 14 -10 16 -7 1 -8 0 -2 -3z"/>
<path d="M4193 7963 c-3 -10 -7 -20 -9 -23 -1 -3 6 -6 16 -6 14 0 16 4 9 13
-6 7 -8 17 -4 23 3 5 4 10 0 10 -3 0 -8 -8 -12 -17z"/>
<path d="M6270 7976 c0 -2 8 -10 18 -17 15 -13 16 -12 3 4 -13 16 -21 21 -21
13z"/>
<path d="M8736 7972 c-2 -4 -1 -14 4 -22 7 -11 9 -9 7 8 -1 24 -3 26 -11 14z"/>
<path d="M4123 7954 c-3 -8 -12 -13 -19 -10 -7 3 -16 2 -18 -3 -3 -4 8 -7 24
-7 21 0 26 4 22 14 -4 11 -1 13 8 7 9 -5 11 -4 6 3 -10 16 -15 15 -23 -4z"/>
<path d="M8828 7952 c9 -10 19 -17 21 -16 6 5 -20 34 -30 34 -5 0 -1 -8 9 -18z"/>
<path d="M8933 7953 c0 -10 4 -10 16 -1 9 7 18 13 20 15 2 1 -5 1 -16 0 -11 0
-20 -7 -20 -14z"/>
<path d="M4240 7940 c-9 -6 -10 -10 -3 -10 6 0 15 5 18 10 8 12 4 12 -15 0z"/>
<path d="M8715 7940 c-3 -5 -1 -10 4 -10 6 0 11 5 11 10 0 6 -2 10 -4 10 -3 0
-8 -4 -11 -10z"/>
<path d="M8814 7942 c3 -5 1 -12 -6 -14 -17 -6 -18 -35 -2 -35 10 0 11 4 5 10
-7 7 -5 14 6 22 13 10 13 14 3 20 -8 5 -11 4 -6 -3z"/>
<path d="M8956 7941 c-3 -4 4 -17 17 -27 22 -19 22 -19 4 2 -9 11 -14 24 -10
27 3 4 4 7 0 7 -3 0 -8 -4 -11 -9z"/>
<path d="M8995 7930 c10 -11 20 -20 23 -20 3 0 -3 9 -13 20 -10 11 -20 20 -23
20 -3 0 3 -9 13 -20z"/>
<path d="M8930 7921 c0 -6 4 -13 10 -16 6 -3 7 1 4 9 -7 18 -14 21 -14 7z"/>
<path d="M4253 7905 c0 -8 4 -12 9 -9 5 3 6 10 3 15 -9 13 -12 11 -12 -6z"/>
<path d="M8716 7907 c3 -10 9 -15 12 -12 3 3 0 11 -7 18 -10 9 -11 8 -5 -6z"/>
<path d="M8760 7911 c0 -6 4 -13 10 -16 6 -3 7 1 4 9 -7 18 -14 21 -14 7z"/>
<path d="M4146 7897 c3 -10 9 -15 12 -12 3 3 0 11 -7 18 -10 9 -11 8 -5 -6z"/>
<path d="M8912 7895 c17 -21 54 -30 62 -16 3 4 -5 7 -17 6 -12 -1 -31 5 -42
14 -19 16 -20 15 -3 -4z"/>
<path d="M9013 7887 c0 -8 6 -14 14 -14 9 0 10 4 2 14 -6 7 -12 13 -14 13 -1
0 -2 -6 -2 -13z"/>
<path d="M4050 7880 c0 -5 5 -10 10 -10 6 0 10 5 10 10 0 6 -4 10 -10 10 -5 0
-10 -4 -10 -10z"/>
<path d="M8715 7869 c-4 -6 -5 -12 -2 -15 2 -3 7 2 10 11 7 17 1 20 -8 4z"/>
<path d="M8746 7865 c-11 -8 -15 -15 -9 -15 6 0 16 7 23 15 16 19 11 19 -14 0z"/>
<path d="M8827 7859 c7 -7 15 -10 18 -7 3 3 -2 9 -12 12 -14 6 -15 5 -6 -5z"/>
<path d="M4030 7850 c-9 -6 -10 -10 -3 -10 6 0 15 5 18 10 8 12 4 12 -15 0z"/>
<path d="M4135 7840 c2 -27 10 -33 12 -10 1 11 -2 22 -6 24 -4 3 -7 -4 -6 -14z"/>
<path d="M6296 7847 c3 -10 9 -15 12 -12 3 3 0 11 -7 18 -10 9 -11 8 -5 -6z"/>
<path d="M6873 7835 c0 -8 4 -12 9 -9 5 3 6 10 3 15 -9 13 -12 11 -12 -6z"/>
<path d="M8650 7846 c0 -2 7 -7 16 -10 8 -3 12 -2 9 4 -6 10 -25 14 -25 6z"/>
<path d="M8775 7840 c3 -5 8 -10 11 -10 2 0 4 5 4 10 0 6 -5 10 -11 10 -5 0
-7 -4 -4 -10z"/>
<path d="M3990 7830 c0 -5 5 -10 11 -10 5 0 7 5 4 10 -3 6 -8 10 -11 10 -2 0
-4 -4 -4 -10z"/>
<path d="M4075 7811 c0 -16 3 -27 7 -25 4 3 6 14 5 24 -5 31 -13 32 -12 1z"/>
<path d="M8874 7822 c4 -3 14 -7 22 -8 9 -1 13 0 10 4 -4 3 -14 7 -22 8 -9 1
-13 0 -10 -4z"/>
<path d="M6293 7807 c0 -8 6 -14 14 -14 9 0 10 4 2 14 -6 7 -12 13 -14 13 -1
0 -2 -6 -2 -13z"/>
<path d="M8640 7804 c-17 -9 -20 -14 -9 -14 9 0 22 7 29 15 15 18 13 18 -20
-1z"/>
<path d="M3926 7797 c3 -10 9 -15 12 -12 3 3 0 11 -7 18 -10 9 -11 8 -5 -6z"/>
<path d="M3955 7800 c-3 -5 -1 -10 4 -10 6 0 11 5 11 10 0 6 -2 10 -4 10 -3 0
-8 -4 -11 -10z"/>
<path d="M8681 7796 c-9 -11 -9 -16 1 -22 7 -4 10 -4 6 1 -4 4 -3 14 3 22 6 7
9 13 6 13 -2 0 -10 -6 -16 -14z"/>
<path d="M8746 7802 c-3 -5 1 -9 9 -9 8 0 12 4 9 9 -3 4 -7 8 -9 8 -2 0 -6 -4
-9 -8z"/>
<path d="M3913 7778 c3 -9 3 -19 -1 -21 -4 -2 -2 -3 4 -1 6 1 18 -3 25 -9 11
-10 -6 14 -30 43 -2 3 -1 -3 2 -12z"/>
<path d="M9050 7779 c0 -5 5 -7 10 -4 6 3 10 8 10 11 0 2 -4 4 -10 4 -5 0 -10
-5 -10 -11z"/>
<path d="M8630 7750 c0 -6 7 -10 15 -10 8 0 15 2 15 4 0 2 -7 6 -15 10 -8 3
-15 1 -15 -4z"/>
<path d="M3870 7741 c0 -6 4 -12 8 -15 5 -3 9 1 9 9 0 8 -4 15 -9 15 -4 0 -8
-4 -8 -9z"/>
<path d="M4070 7740 c0 -5 5 -10 11 -10 5 0 7 5 4 10 -3 6 -8 10 -11 10 -2 0
-4 -4 -4 -10z"/>
<path d="M8673 7733 c0 -9 4 -10 14 -2 7 6 13 12 13 14 0 1 -6 2 -13 2 -8 0
-14 -6 -14 -14z"/>
<path d="M9070 7739 c0 -5 5 -7 10 -4 6 3 10 8 10 11 0 2 -4 4 -10 4 -5 0 -10
-5 -10 -11z"/>
<path d="M8475 7730 c-8 -13 9 -20 24 -11 10 6 9 10 -3 14 -8 3 -18 2 -21 -3z"/>
<path d="M3837 7710 c10 -11 19 -20 21 -20 1 0 -2 9 -8 20 -6 11 -15 20 -20
20 -6 0 -2 -9 7 -20z"/>
<path d="M8576 7714 c-5 -14 -4 -15 9 -4 17 14 19 20 6 20 -5 0 -12 -7 -15
-16z"/>
<path d="M8512 7711 c-11 -7 -11 -9 0 -14 9 -3 15 1 15 9 0 8 -1 14 -1 14 -1
0 -7 -4 -14 -9z"/>
<path d="M3970 7699 c0 -5 5 -7 10 -4 6 3 10 8 10 11 0 2 -4 4 -10 4 -5 0 -10
-5 -10 -11z"/>
<path d="M8600 7700 c-9 -6 -10 -10 -3 -10 6 0 15 5 18 10 8 12 4 12 -15 0z"/>
<path d="M9116 7702 c-3 -5 1 -9 9 -9 8 0 12 4 9 9 -3 4 -7 8 -9 8 -2 0 -6 -4
-9 -8z"/>
<path d="M9175 7700 c3 -5 8 -10 11 -10 2 0 4 5 4 10 0 6 -5 10 -11 10 -5 0
-7 -4 -4 -10z"/>
<path d="M8484 7688 c3 -15 26 -23 26 -8 0 6 -4 9 -9 6 -5 -4 -12 -1 -14 4 -3
6 -4 5 -3 -2z"/>
<path d="M3793 7673 c0 -6 5 -9 11 -5 6 4 14 7 18 7 19 0 14 11 -6 11 -12 0
-23 -6 -23 -13z"/>
<path d="M3877 7671 c-10 -14 -10 -14 4 -4 9 7 18 10 21 7 3 -3 8 -1 12 4 9
16 -24 9 -37 -7z"/>
<path d="M5862 7676 c7 -8 15 -12 17 -11 5 6 -10 25 -20 25 -5 0 -4 -6 3 -14z"/>
<path d="M5926 7673 c19 -20 50 -27 58 -14 3 5 -2 15 -12 22 -15 13 -16 12 -4
-3 12 -15 11 -17 -7 -15 -11 1 -23 7 -25 14 -3 7 -10 13 -16 13 -6 0 -4 -8 6
-17z"/>
<path d="M6070 7680 c-9 -6 -10 -10 -3 -10 6 0 15 5 18 10 8 12 4 12 -15 0z"/>
<path d="M6275 7681 c-3 -5 -2 -12 3 -15 5 -3 9 1 9 9 0 17 -3 19 -12 6z"/>
<path d="M6440 7671 c-7 -15 -7 -19 5 -17 8 1 18 6 22 11 4 4 2 5 -4 1 -7 -4
-13 -3 -13 3 0 5 6 12 13 14 9 4 9 6 0 6 -7 1 -17 -8 -23 -18z"/>
<path d="M6501 7677 c-1 -11 -6 -15 -13 -11 -7 5 -8 3 -3 -5 10 -16 29 2 22
21 -4 8 -6 7 -6 -5z"/>
<path d="M6672 7681 c-11 -7 -11 -9 0 -14 9 -3 15 1 15 9 0 8 -1 14 -1 14 -1
0 -7 -4 -14 -9z"/>
<path d="M8427 7684 c-3 -3 -1 -18 6 -32 15 -38 31 -53 18 -19 -15 38 -14 39
8 27 11 -5 26 -10 33 -9 7 0 1 5 -14 11 -16 5 -28 14 -28 19 0 10 -14 12 -23
3z"/>
<path d="M8550 7682 c0 -5 7 -9 15 -9 8 0 12 4 9 9 -3 4 -9 8 -15 8 -5 0 -9
-4 -9 -8z"/>
<path d="M3757 7669 c7 -7 15 -10 18 -7 3 3 -2 9 -12 12 -14 6 -15 5 -6 -5z"/>
<path d="M3730 7660 c0 -5 5 -10 11 -10 5 0 7 5 4 10 -3 6 -8 10 -11 10 -2 0
-4 -4 -4 -10z"/>
<path d="M3840 7660 c-9 -6 -10 -10 -3 -10 6 0 15 5 18 10 8 12 4 12 -15 0z"/>
<path d="M5910 7663 c0 -6 8 -17 18 -24 16 -13 16 -13 2 6 -8 11 -16 22 -17
24 -2 2 -3 0 -3 -6z"/>
<path d="M6030 7660 c0 -5 5 -10 10 -10 6 0 10 5 10 10 0 6 -4 10 -10 10 -5 0
-10 -4 -10 -10z"/>
<path d="M6310 7666 c0 -2 7 -7 16 -10 8 -3 12 -2 9 4 -6 10 -25 14 -25 6z"/>
<path d="M6630 7660 c0 -5 5 -10 10 -10 6 0 10 5 10 10 0 6 -4 10 -10 10 -5 0
-10 -4 -10 -10z"/>
<path d="M5775 7649 c-4 -6 -5 -12 -2 -15 2 -3 7 2 10 11 7 17 1 20 -8 4z"/>
<path d="M5818 7648 c5 -5 16 -8 23 -6 8 3 3 7 -10 11 -17 4 -21 3 -13 -5z"/>
<path d="M3875 7639 c-3 -4 2 -6 10 -5 21 3 28 13 10 13 -9 0 -18 -4 -20 -8z"/>
<path d="M5885 7640 c3 -5 8 -10 11 -10 2 0 4 5 4 10 0 6 -5 10 -11 10 -5 0
-7 -4 -4 -10z"/>
<path d="M5986 7641 c-4 -5 3 -7 14 -4 23 6 26 13 6 13 -8 0 -17 -4 -20 -9z"/>
<path d="M6450 7634 c-31 -17 -60 -18 -60 -1 0 8 -3 8 -8 2 -4 -6 -16 -11 -26
-10 -18 0 -19 -8 -18 -145 0 -98 -3 -149 -11 -159 -9 -12 -9 -13 0 -7 18 10
11 -63 -8 -76 -11 -8 -10 -9 4 -4 14 5 17 1 15 -22 -2 -15 -7 -30 -13 -34 -6
-5 -5 -8 3 -8 8 0 11 -13 9 -43 l-4 -43 131 1 c72 0 137 -3 144 -8 7 -6 12 -6
12 0 0 11 42 9 59 -2 6 -3 11 -2 11 3 0 4 14 8 30 8 17 0 30 -3 30 -8 0 -4 5
-8 11 -8 5 0 8 4 5 8 -3 5 13 8 35 7 41 -2 61 11 39 25 -7 4 -8 10 -2 14 5 3
8 35 6 71 -3 51 -1 65 8 60 7 -4 4 1 -6 9 -15 12 -16 16 -5 16 12 0 12 2 -1
10 -8 5 -10 10 -4 10 6 0 9 14 7 33 -5 45 -5 46 0 105 3 28 1 52 -3 52 -5 0
-5 12 -1 28 4 15 4 39 0 54 -4 17 -3 30 3 34 22 14 -15 20 -110 19 -78 -1 -99
1 -109 14 -10 15 -14 14 -41 -2 -30 -17 -56 -18 -79 -4 -6 4 -14 3 -18 -3 -3
-5 -11 -10 -17 -10 -7 0 -6 6 2 15 15 18 13 18 -20 -1z m170 -2 c0 -4 -9 -8
-20 -9 -11 -1 -18 2 -15 8 7 11 35 12 35 1z"/>
<path d="M6695 7640 c3 -5 8 -10 11 -10 2 0 4 5 4 10 0 6 -5 10 -11 10 -5 0
-7 -4 -4 -10z"/>
<path d="M9107 7639 c7 -7 15 -10 18 -7 3 3 -2 9 -12 12 -14 6 -15 5 -6 -5z"/>
<path d="M9233 7635 c0 -8 4 -12 9 -9 5 3 6 10 3 15 -9 13 -12 11 -12 -6z"/>
<path d="M3795 7630 c-3 -5 -3 -10 1 -10 4 0 -1 -10 -12 -22 -19 -23 -19 -23
2 -5 11 9 21 24 21 32 0 18 -3 19 -12 5z"/>
<path d="M5955 7630 c-3 -5 -29 -9 -58 -8 -29 0 -78 0 -109 -1 l-57 -1 -3
-265 c-2 -146 1 -265 5 -265 5 0 6 -4 3 -8 -2 -4 0 -14 6 -22 8 -12 9 -12 4 3
-3 9 -2 17 2 18 50 5 72 3 67 -9 -3 -9 5 -8 31 3 35 14 54 13 54 -5 0 -4 -8
-6 -19 -3 -10 3 -21 1 -24 -4 -3 -5 6 -8 20 -7 14 0 30 8 35 18 9 17 11 16 31
-1 11 -10 17 -12 12 -4 -5 8 -4 12 1 8 6 -3 16 -2 24 3 9 5 19 5 27 -2 10 -8
13 -7 13 3 0 11 2 11 9 0 8 -13 12 -13 27 0 15 12 16 12 9 0 -6 -11 -3 -13 16
-7 34 11 80 13 109 5 31 -8 46 7 43 44 -1 15 2 25 6 23 4 -3 8 1 8 9 0 8 -4
12 -9 9 -4 -3 -8 0 -8 5 0 6 6 11 13 11 8 0 9 3 1 8 -6 4 -11 16 -11 27 0 11
5 23 11 27 8 5 7 8 -1 8 -7 0 -13 5 -13 11 0 5 5 7 12 3 8 -5 8 -3 2 7 -14 21
-14 150 0 142 8 -5 8 -3 0 8 -13 17 -16 122 -3 114 5 -4 9 -2 9 4 0 5 -6 11
-12 14 -10 3 -9 8 2 22 9 11 10 16 3 11 -9 -5 -13 0 -13 13 0 24 3 24 -158 23
-67 0 -110 3 -107 9 4 5 4 9 1 9 -3 0 -8 -4 -11 -10z"/>
<path d="M9375 7631 c-3 -5 -2 -12 3 -15 5 -3 9 1 9 9 0 17 -3 19 -12 6z"/>
<path d="M3760 7620 c-9 -6 -10 -10 -3 -10 6 0 15 5 18 10 8 12 4 12 -15 0z"/>
<path d="M8500 7625 c0 -2 6 -8 13 -14 10 -8 14 -7 14 2 0 8 -6 14 -14 14 -7
0 -13 -1 -13 -2z"/>
<path d="M8613 7609 c-2 -23 3 -25 10 -4 4 8 3 16 -1 19 -4 3 -9 -4 -9 -15z"/>
<path d="M9294 7622 c4 -3 14 -7 22 -8 9 -1 13 0 10 4 -4 3 -14 7 -22 8 -9 1
-13 0 -10 -4z"/>
<path d="M6275 7609 c-4 -6 -5 -12 -2 -15 2 -3 7 2 10 11 7 17 1 20 -8 4z"/>
<path d="M8319 7603 c-7 -10 -9 -15 -5 -11 5 4 14 0 21 -9 9 -13 14 -13 20 -3
5 8 4 11 -2 7 -6 -4 -13 0 -16 7 -3 8 -1 17 6 20 8 3 8 5 1 5 -6 1 -18 -7 -25
-16z"/>
<path d="M8470 7616 c0 -2 8 -10 18 -17 15 -13 16 -12 3 4 -13 16 -21 21 -21
13z"/>
<path d="M3650 7600 c0 -5 5 -10 11 -10 5 0 7 5 4 10 -3 6 -8 10 -11 10 -2 0
-4 -4 -4 -10z"/>
<path d="M3705 7600 c-3 -6 1 -7 9 -4 18 7 21 14 7 14 -6 0 -13 -4 -16 -10z"/>
<path d="M3813 7585 c0 -8 4 -12 9 -9 5 3 6 10 3 15 -9 13 -12 11 -12 -6z"/>
<path d="M3630 7580 c0 -6 7 -10 15 -10 8 0 15 2 15 4 0 2 -7 6 -15 10 -8 3
-15 1 -15 -4z"/>
<path d="M3720 7580 c-9 -6 -10 -10 -3 -10 6 0 15 5 18 10 8 12 4 12 -15 0z"/>
<path d="M9415 7581 c-3 -5 -2 -12 3 -15 5 -3 9 1 9 9 0 17 -3 19 -12 6z"/>
<path d="M3611 7564 c0 -11 3 -14 6 -6 3 7 2 16 -1 19 -3 4 -6 -2 -5 -13z"/>
<path d="M3678 7573 c7 -3 16 -2 19 1 4 3 -2 6 -13 5 -11 0 -14 -3 -6 -6z"/>
<path d="M8313 7565 c0 -8 4 -15 9 -15 4 0 8 4 8 9 0 6 -4 12 -8 15 -5 3 -9
-1 -9 -9z"/>
<path d="M8295 7540 c6 -10 4 -12 -11 -6 -15 6 -17 5 -6 -5 9 -9 15 -10 23 -2
8 8 7 13 -2 18 -8 6 -10 4 -4 -5z"/>
<path d="M8387 7539 c7 -7 15 -10 18 -7 3 3 -2 9 -12 12 -14 6 -15 5 -6 -5z"/>
<path d="M3613 7521 c0 -11 5 -18 9 -15 4 3 5 11 1 19 -7 21 -12 19 -10 -4z"/>
<path d="M3695 7529 c-4 -6 -5 -12 -2 -15 2 -3 7 2 10 11 7 17 1 20 -8 4z"/>
<path d="M8334 7520 c0 -13 4 -16 10 -10 7 7 7 13 0 20 -6 6 -10 3 -10 -10z"/>
<path d="M3566 7515 c4 -8 8 -15 10 -15 2 0 4 7 4 15 0 8 -4 15 -10 15 -5 0
-7 -7 -4 -15z"/>
<path d="M8244 7519 c-3 -6 -1 -16 5 -22 9 -9 10 -7 5 7 -6 15 -4 17 6 11 9
-5 11 -4 6 3 -9 15 -13 15 -22 1z"/>
<path d="M3550 7501 c0 -10 29 -36 34 -30 1 2 -6 12 -16 22 -10 9 -18 13 -18
8z"/>
<path d="M6310 7499 c0 -5 5 -7 10 -4 6 3 10 8 10 11 0 2 -4 4 -10 4 -5 0 -10
-5 -10 -11z"/>
<path d="M3630 7480 c0 -5 5 -10 11 -10 5 0 7 5 4 10 -3 6 -8 10 -11 10 -2 0
-4 -4 -4 -10z"/>
<path d="M3667 7479 c7 -7 15 -10 18 -7 3 3 -2 9 -12 12 -14 6 -15 5 -6 -5z"/>
<path d="M6257 7475 c-4 -8 -3 -16 1 -19 4 -3 9 4 9 15 2 23 -3 25 -10 4z"/>
<path d="M8235 7471 c3 -5 0 -11 -7 -13 -7 -3 -5 -7 6 -11 9 -4 15 -3 11 2 -3
5 0 11 7 13 7 3 5 7 -6 11 -9 4 -15 3 -11 -2z"/>
<path d="M8163 7460 c-13 -5 -23 -15 -22 -22 0 -10 2 -10 6 0 2 6 11 12 18 12
8 0 17 5 20 10 7 12 7 12 -22 0z"/>
<path d="M3470 7438 c0 -11 12 -10 30 2 12 7 10 9 -8 7 -12 0 -22 -5 -22 -9z"/>
<path d="M3525 7440 c-5 -7 52 -6 60 1 2 3 -9 5 -26 5 -16 0 -32 -3 -34 -6z"/>
<path d="M8286 7438 c3 -5 10 -6 15 -3 13 9 11 12 -6 12 -8 0 -12 -4 -9 -9z"/>
<path d="M6315 7431 c-3 -5 -2 -12 3 -15 5 -3 9 1 9 9 0 17 -3 19 -12 6z"/>
<path d="M3440 7426 c0 -2 7 -7 16 -10 8 -3 12 -2 9 4 -6 10 -25 14 -25 6z"/>
<path d="M8190 7414 c6 -6 7 -14 3 -17 -3 -4 -1 -7 6 -7 7 0 11 6 8 14 -3 8
-1 17 6 19 7 3 2 4 -10 4 -15 -1 -19 -5 -13 -13z"/>
<path d="M3535 7409 c-4 -6 -5 -12 -2 -15 2 -3 7 2 10 11 7 17 1 20 -8 4z"/>
<path d="M8110 7410 c-8 -5 -10 -10 -5 -10 6 0 17 5 25 10 8 5 11 10 5 10 -5
0 -17 -5 -25 -10z"/>
<path d="M3430 7399 c0 -5 5 -7 10 -4 6 3 10 8 10 11 0 2 -4 4 -10 4 -5 0 -10
-5 -10 -11z"/>
<path d="M8140 7400 c-9 -6 -10 -10 -3 -10 6 0 15 5 18 10 8 12 4 12 -15 0z"/>
<path d="M8266 7398 c3 -5 10 -6 15 -3 13 9 11 12 -6 12 -8 0 -12 -4 -9 -9z"/>
<path d="M8233 7385 c0 -8 4 -12 9 -9 5 3 6 10 3 15 -9 13 -12 11 -12 -6z"/>
<path d="M3350 7380 c0 -5 5 -10 10 -10 6 0 10 5 10 10 0 6 -4 10 -10 10 -5 0
-10 -4 -10 -10z"/>
<path d="M8099 7388 c-1 -2 -3 -13 -4 -25 -2 -15 2 -20 13 -15 11 4 13 2 7 -8
-5 -8 -4 -11 3 -6 6 4 9 13 6 21 -4 8 -11 12 -17 8 -6 -4 -8 0 -4 10 5 13 1
25 -4 15z"/>
<path d="M3400 7371 c0 -6 4 -13 10 -16 6 -3 7 1 4 9 -7 18 -14 21 -14 7z"/>
<path d="M8197 7373 c-10 -9 -9 -23 1 -23 5 0 9 7 9 15 0 17 -1 18 -10 8z"/>
<path d="M3324 7359 c-3 -6 -2 -15 4 -21 6 -6 12 -6 17 3 6 8 4 10 -5 4 -10
-6 -12 -4 -7 8 7 19 2 23 -9 6z"/>
<path d="M3486 7338 c3 -5 10 -6 15 -3 13 9 11 12 -6 12 -8 0 -12 -4 -9 -9z"/>
<path d="M8054 7342 c4 -7 1 -12 -8 -12 -9 0 -16 -4 -16 -8 0 -5 7 -9 15 -9
18 0 28 24 13 33 -7 4 -8 3 -4 -4z"/>
<path d="M8145 7340 c-3 -6 1 -7 9 -4 18 7 21 14 7 14 -6 0 -13 -4 -16 -10z"/>
<path d="M3410 7336 c0 -2 8 -10 18 -17 15 -13 16 -12 3 4 -13 16 -21 21 -21
13z"/>
<path d="M3350 7321 c0 -5 8 -15 18 -22 15 -12 16 -12 5 2 -7 9 -10 19 -6 22
3 4 1 7 -5 7 -7 0 -12 -4 -12 -9z"/>
<path d="M3275 7309 c-4 -6 -5 -12 -2 -15 2 -3 7 2 10 11 7 17 1 20 -8 4z"/>
<path d="M3395 7311 c-3 -5 -2 -12 3 -15 5 -3 9 1 9 9 0 17 -3 19 -12 6z"/>
<path d="M3296 7301 c-3 -5 1 -14 9 -21 8 -7 13 -15 11 -19 -3 -4 -1 -13 3
-20 5 -8 8 0 7 22 -1 25 -5 33 -15 29 -9 -3 -12 -1 -7 6 4 7 5 12 2 12 -3 0
-7 -4 -10 -9z"/>
<path d="M3450 7300 c0 -5 5 -10 11 -10 5 0 7 5 4 10 -3 6 -8 10 -11 10 -2 0
-4 -4 -4 -10z"/>
<path d="M8001 7292 c-7 -14 -6 -19 4 -19 7 0 11 7 7 15 -4 11 -1 13 8 7 9 -5
11 -4 6 3 -10 16 -14 15 -25 -6z"/>
<path d="M3236 7282 c-3 -5 1 -9 9 -9 8 0 15 4 15 9 0 4 -4 8 -9 8 -6 0 -12
-4 -15 -8z"/>
<path d="M8070 7286 c0 -2 7 -7 16 -10 8 -3 12 -2 9 4 -6 10 -25 14 -25 6z"/>
<path d="M3216 7257 c3 -10 9 -15 12 -12 3 3 0 11 -7 18 -10 9 -11 8 -5 -6z"/>
<path d="M7954 7263 c4 -7 2 -13 -3 -13 -6 0 -11 -4 -11 -8 0 -5 6 -9 14 -9
15 0 16 21 1 34 -4 4 -5 2 -1 -4z"/>
<path d="M8070 7260 c0 -5 5 -10 11 -10 5 0 7 5 4 10 -3 6 -8 10 -11 10 -2 0
-4 -4 -4 -10z"/>
<path d="M3246 7243 c-6 -14 -5 -15 5 -6 7 7 10 15 7 18 -3 3 -9 -2 -12 -12z"/>
<path d="M7988 7253 c7 -3 16 -2 19 1 4 3 -2 6 -13 5 -11 0 -14 -3 -6 -6z"/>
<path d="M3195 7239 c-4 -6 -5 -12 -2 -15 2 -3 7 2 10 11 7 17 1 20 -8 4z"/>
<path d="M8033 7235 c0 -8 4 -12 9 -9 4 3 8 9 8 15 0 5 -4 9 -8 9 -5 0 -9 -7
-9 -15z"/>
<path d="M3359 7228 c-5 -18 -6 -38 -1 -34 7 8 12 36 6 36 -2 0 -4 -1 -5 -2z"/>
<path d="M7911 7207 c-13 -21 -12 -21 5 -5 10 10 16 20 13 22 -3 3 -11 -5 -18
-17z"/>
<path d="M3110 7201 c0 -10 19 -25 25 -20 1 2 -3 10 -11 17 -8 7 -14 8 -14 3z"/>
<path d="M3150 7200 c0 -5 5 -10 10 -10 6 0 10 5 10 10 0 6 -4 10 -10 10 -5 0
-10 -4 -10 -10z"/>
<path d="M7865 7200 c-3 -5 -1 -10 5 -10 6 0 8 -5 4 -12 -4 -7 -3 -8 4 -4 6 4
9 13 5 21 -6 18 -10 19 -18 5z"/>
<path d="M7960 7200 c-9 -6 -10 -10 -3 -10 6 0 15 5 18 10 8 12 4 12 -15 0z"/>
<path d="M3090 7180 c0 -5 5 -10 11 -10 5 0 7 5 4 10 -3 6 -8 10 -11 10 -2 0
-4 -4 -4 -10z"/>
<path d="M3231 7173 c7 -12 15 -20 18 -17 3 2 -3 12 -13 22 -17 16 -18 16 -5
-5z"/>
<path d="M7850 7171 c0 -7 -4 -10 -8 -7 -4 2 -9 -5 -9 -16 -2 -21 -2 -21 14 1
8 12 12 25 9 28 -3 4 -6 1 -6 -6z"/>
<path d="M6296 7162 c-3 -4 4 -9 15 -9 23 -2 25 3 4 10 -8 4 -16 3 -19 -1z"/>
<path d="M3095 7150 c-3 -6 1 -7 9 -4 18 7 21 14 7 14 -6 0 -13 -4 -16 -10z"/>
<path d="M3120 7140 c-9 -6 -10 -10 -3 -10 6 0 15 5 18 10 8 12 4 12 -15 0z"/>
<path d="M7877 7137 c4 -7 -1 -8 -13 -3 -15 6 -17 5 -6 -5 10 -11 15 -10 28 2
13 14 13 16 0 16 -8 0 -12 -5 -9 -10z"/>
<path d="M7953 7125 c0 -8 4 -12 9 -9 5 3 6 10 3 15 -9 13 -12 11 -12 -6z"/>
<path d="M7794 7115 c-4 -8 -11 -12 -18 -8 -6 3 -7 2 -3 -2 14 -16 36 -14 30
3 -4 10 -2 13 5 8 7 -4 12 -2 12 3 0 16 -20 13 -26 -4z"/>
<path d="M7916 7118 c3 -5 10 -6 15 -3 13 9 11 12 -6 12 -8 0 -12 -4 -9 -9z"/>
<path d="M3113 7105 c0 -8 4 -12 9 -9 5 3 6 10 3 15 -9 13 -12 11 -12 -6z"/>
<path d="M3170 7099 c0 -5 5 -7 10 -4 6 3 10 8 10 11 0 2 -4 4 -10 4 -5 0 -10
-5 -10 -11z"/>
<path d="M2997 7086 c-4 -10 -3 -15 3 -11 6 3 10 1 10 -6 0 -7 3 -10 6 -6 3 3
2 13 -4 22 -8 16 -9 16 -15 1z"/>
<path d="M3070 7081 c0 -6 4 -13 10 -16 6 -3 7 1 4 9 -7 18 -14 21 -14 7z"/>
<path d="M3119 7073 c-13 -16 -12 -17 4 -4 16 13 21 21 13 21 -2 0 -10 -8 -17
-17z"/>
<path d="M7767 7079 c7 -7 15 -10 18 -7 3 3 -2 9 -12 12 -14 6 -15 5 -6 -5z"/>
<path d="M7830 7079 c0 -5 5 -7 10 -4 6 3 10 8 10 11 0 2 -4 4 -10 4 -5 0 -10
-5 -10 -11z"/>
<path d="M6500 7073 c0 -6 -10 -9 -22 -7 -21 4 -21 4 -3 -5 20 -9 45 3 32 16
-4 3 -7 2 -7 -4z"/>
<path d="M5919 7063 c0 -5 -2 -18 -5 -30 -2 -13 0 -23 4 -23 4 0 8 14 8 30 1
17 0 30 -2 30 -2 0 -4 -3 -5 -7z"/>
<path d="M5975 7061 c-3 -5 0 -13 6 -17 8 -5 9 -3 4 6 -6 10 -4 12 9 7 10 -4
15 -3 11 3 -8 13 -22 13 -30 1z"/>
<path d="M6095 7060 c-3 -6 1 -7 9 -4 18 7 21 14 7 14 -6 0 -13 -4 -16 -10z"/>
<path d="M6150 7060 c0 -5 5 -10 10 -10 6 0 10 5 10 10 0 6 -4 10 -10 10 -5 0
-10 -4 -10 -10z"/>
<path d="M6350 7056 c7 -7 13 -7 20 0 6 6 3 10 -10 10 -13 0 -16 -4 -10 -10z"/>
<path d="M6393 7050 c-1 -11 1 -22 5 -24 4 -2 8 7 8 20 1 13 -1 24 -5 24 -4 0
-7 -9 -8 -20z"/>
<path d="M6533 7053 c-3 -8 -3 -17 1 -20 3 -4 6 0 6 8 0 8 9 15 19 16 14 1 18
-3 14 -13 -3 -8 -1 -14 5 -14 6 0 9 8 8 18 -3 21 -45 25 -53 5z"/>
<path d="M6630 7060 c0 -5 5 -10 10 -10 6 0 10 5 10 10 0 6 -4 10 -10 10 -5 0
-10 -4 -10 -10z"/>
<path d="M6693 7057 c-3 -6 -1 -7 4 -4 16 10 23 -18 10 -34 -10 -11 -9 -11 5
0 9 7 22 10 27 6 7 -3 8 0 5 9 -3 9 -11 13 -17 9 -6 -4 -8 0 -5 9 7 16 -19 21
-29 5z"/>
<path d="M6810 7060 c0 -5 5 -10 11 -10 5 0 7 5 4 10 -3 6 -8 10 -11 10 -2 0
-4 -4 -4 -10z"/>
<path d="M2953 7044 c0 -7 4 -11 8 -8 4 2 10 -2 12 -8 4 -8 6 -7 6 3 1 9 -5
19 -12 22 -8 3 -14 -1 -14 -9z"/>
<path d="M6022 7040 c0 -14 2 -19 5 -12 2 6 2 18 0 25 -3 6 -5 1 -5 -13z"/>
<path d="M7730 7046 c0 -8 4 -17 9 -20 5 -4 7 3 4 14 -6 23 -13 26 -13 6z"/>
<path d="M2900 7040 c-9 -6 -10 -10 -3 -10 6 0 15 5 18 10 8 12 4 12 -15 0z"/>
<path d="M5867 7031 c-4 -17 -3 -21 5 -13 5 5 8 16 6 23 -3 8 -7 3 -11 -10z"/>
<path d="M5957 7031 c14 -17 33 -20 33 -5 0 3 -4 3 -9 0 -5 -3 -11 1 -15 9 -3
8 -10 15 -16 15 -5 0 -2 -9 7 -19z"/>
<path d="M6055 7039 c-11 -16 -1 -19 13 -3 7 8 8 14 3 14 -5 0 -13 -5 -16 -11z"/>
<path d="M6445 7040 c-4 -6 1 -7 11 -3 14 5 16 3 10 -13 -5 -14 -4 -16 5 -7
12 12 5 33 -11 33 -5 0 -12 -4 -15 -10z"/>
<path d="M7710 7034 c0 -9 -5 -12 -12 -8 -7 4 -9 3 -5 -1 15 -17 35 -13 30 6
-6 23 -13 25 -13 3z"/>
<path d="M2914 7022 c-8 -5 -5 -12 10 -23 20 -16 22 -16 22 1 0 11 -5 16 -15
12 -9 -3 -12 -1 -7 6 8 14 6 15 -10 4z"/>
<path d="M3025 7020 c-3 -6 1 -7 9 -4 18 7 21 14 7 14 -6 0 -13 -4 -16 -10z"/>
<path d="M5827 7019 c7 -7 15 -10 18 -7 3 3 -2 9 -12 12 -14 6 -15 5 -6 -5z"/>
<path d="M6070 7021 c0 -6 4 -13 10 -16 6 -3 7 1 4 9 -7 18 -14 21 -14 7z"/>
<path d="M6295 7020 c-3 -5 -1 -10 4 -10 6 0 11 5 11 10 0 6 -2 10 -4 10 -3 0
-8 -4 -11 -10z"/>
<path d="M6554 7016 c1 -8 5 -18 8 -22 4 -3 5 1 4 10 -1 8 -5 18 -8 22 -4 3
-5 -1 -4 -10z"/>
<path d="M6593 7022 c-9 -6 -7 -11 7 -20 19 -11 40 1 26 15 -3 4 -6 1 -6 -6 0
-7 -5 -9 -10 -6 -6 4 -8 11 -5 16 7 11 4 11 -12 1z"/>
<path d="M5995 7009 c-4 -6 -5 -12 -2 -15 2 -3 7 2 10 11 7 17 1 20 -8 4z"/>
<path d="M6129 7003 c-13 -16 -12 -17 4 -4 9 7 17 15 17 17 0 8 -8 3 -21 -13z"/>
<path d="M6435 7010 c-4 -6 -11 -7 -17 -4 -7 4 -8 2 -4 -5 6 -9 11 -9 22 0 14
11 18 19 10 19 -3 0 -8 -5 -11 -10z"/>
<path d="M6530 7006 c0 -8 4 -17 9 -20 5 -4 7 3 4 14 -6 23 -13 26 -13 6z"/>
<path d="M6651 7013 c-1 -18 13 -23 29 -11 12 8 12 9 -2 5 -9 -3 -19 -1 -22 6
-3 9 -5 9 -5 0z"/>
<path d="M6776 7007 c3 -10 9 -15 12 -12 3 3 0 11 -7 18 -10 9 -11 8 -5 -6z"/>
<path d="M3056 7002 c-3 -5 1 -9 9 -9 8 0 12 4 9 9 -3 4 -7 8 -9 8 -2 0 -6 -4
-9 -8z"/>
<path d="M5936 6994 c-5 -14 -4 -15 9 -4 17 14 19 20 6 20 -5 0 -12 -7 -15
-16z"/>
<path d="M6050 7001 c0 -6 4 -13 10 -16 6 -3 7 1 4 9 -7 18 -14 21 -14 7z"/>
<path d="M6156 7002 c-3 -5 1 -9 9 -9 8 0 12 4 9 9 -3 4 -7 8 -9 8 -2 0 -6 -4
-9 -8z"/>
<path d="M6721 6996 c-8 -10 -9 -16 -1 -21 6 -4 9 -1 8 7 -2 7 3 12 10 10 8
-1 11 2 7 8 -8 13 -10 13 -24 -4z"/>
<path d="M7796 7002 c-3 -5 1 -9 9 -9 8 0 12 4 9 9 -3 4 -7 8 -9 8 -2 0 -6 -4
-9 -8z"/>
<path d="M2175 6990 c-4 -6 1 -7 11 -3 13 5 15 3 9 -7 -5 -9 -4 -11 4 -6 6 4
9 12 6 17 -8 12 -22 12 -30 -1z"/>
<path d="M2255 6990 c5 -9 1 -10 -16 -6 -21 6 -22 6 -6 -5 13 -7 22 -8 29 -1
6 6 6 12 -3 17 -8 6 -10 4 -4 -5z"/>
<path d="M2310 6995 c0 -5 5 -17 10 -25 5 -8 10 -10 10 -5 0 6 -5 17 -10 25
-5 8 -10 11 -10 5z"/>
<path d="M2748 6993 c7 -3 16 -2 19 1 4 3 -2 6 -13 5 -11 0 -14 -3 -6 -6z"/>
<path d="M2716 6973 c-6 -14 -5 -15 5 -6 7 7 10 15 7 18 -3 3 -9 -2 -12 -12z"/>
<path d="M2775 6981 c-3 -5 0 -13 6 -17 7 -4 9 -3 5 4 -3 5 0 13 6 15 9 4 10
6 1 6 -6 1 -14 -3 -18 -8z"/>
<path d="M3010 6980 c0 -5 5 -10 11 -10 5 0 7 5 4 10 -3 6 -8 10 -11 10 -2 0
-4 -4 -4 -10z"/>
<path d="M6107 6979 c7 -7 15 -10 18 -7 3 3 -2 9 -12 12 -14 6 -15 5 -6 -5z"/>
<path d="M6681 6976 c-9 -11 -9 -16 1 -22 7 -4 10 -4 6 1 -4 4 -3 14 3 22 6 7
9 13 6 13 -2 0 -10 -6 -16 -14z"/>
<path d="M7655 6980 c-3 -6 2 -13 12 -17 10 -3 22 -8 27 -11 5 -3 6 0 2 6 -4
7 -14 12 -22 12 -8 0 -12 5 -9 10 3 6 4 10 1 10 -3 0 -8 -5 -11 -10z"/>
<path d="M6939 6957 c-9 -12 -20 -33 -24 -47 -7 -23 -7 -24 10 -10 11 8 34 30
52 48 l32 32 -27 0 c-16 -1 -33 -9 -43 -23z"/>
<path d="M2155 6960 c3 -5 8 -10 11 -10 2 0 4 5 4 10 0 6 -5 10 -11 10 -5 0
-7 -4 -4 -10z"/>
<path d="M2205 6960 c-3 -6 1 -7 9 -4 18 7 21 14 7 14 -6 0 -13 -4 -16 -10z"/>
<path d="M2270 6961 c0 -6 4 -13 10 -16 6 -3 7 1 4 9 -7 18 -14 21 -14 7z"/>
<path d="M2490 6960 c0 -5 5 -10 10 -10 6 0 10 5 10 10 0 6 -4 10 -10 10 -5 0
-10 -4 -10 -10z"/>
<path d="M2580 6960 c18 -12 30 -13 30 -2 0 4 -10 9 -22 9 -18 2 -20 0 -8 -7z"/>
<path d="M2737 6955 c-4 -8 -1 -17 5 -21 7 -4 8 -3 4 4 -4 7 -2 12 3 12 6 0
11 5 11 10 0 15 -17 12 -23 -5z"/>
<path d="M6476 6953 c-6 -14 -5 -15 5 -6 7 7 10 15 7 18 -3 3 -9 -2 -12 -12z"/>
<path d="M6500 6965 c0 -2 6 -8 13 -14 10 -8 14 -7 14 2 0 8 -6 14 -14 14 -7
0 -13 -1 -13 -2z"/>
<path d="M7293 6953 c0 -8 6 -9 19 -2 10 5 18 11 18 12 0 2 -8 3 -18 3 -10 0
-19 -6 -19 -13z"/>
<path d="M7405 6960 c-3 -5 -1 -10 4 -10 6 0 11 5 11 10 0 6 -2 10 -4 10 -3 0
-8 -4 -11 -10z"/>
<path d="M7490 6956 c14 -18 13 -19 -2 -13 -10 3 -18 2 -18 -3 0 -12 27 -13
34 -1 3 5 -2 15 -12 22 -16 13 -16 13 -2 -5z"/>
<path d="M7516 6957 c3 -10 9 -15 12 -12 3 3 0 11 -7 18 -10 9 -11 8 -5 -6z"/>
<path d="M7560 6960 c0 -5 5 -10 11 -10 5 0 7 5 4 10 -3 6 -8 10 -11 10 -2 0
-4 -4 -4 -10z"/>
<path d="M7626 6962 c-3 -5 1 -9 9 -9 8 0 12 4 9 9 -3 4 -7 8 -9 8 -2 0 -6 -4
-9 -8z"/>
<path d="M2557 6949 c7 -7 15 -10 18 -7 3 3 -2 9 -12 12 -14 6 -15 5 -6 -5z"/>
<path d="M2073 6933 c0 -9 4 -10 14 -2 7 6 13 12 13 14 0 1 -6 2 -13 2 -8 0
-14 -6 -14 -14z"/>
<path d="M2140 6946 c0 -2 8 -10 18 -17 15 -13 16 -12 3 4 -13 16 -21 21 -21
13z"/>
<path d="M2237 6937 c4 -6 0 -8 -10 -4 -29 11 -19 -1 15 -18 18 -9 27 -10 20
-3 -16 16 -16 31 1 22 6 -4 8 -3 4 1 -11 13 -38 15 -30 2z"/>
<path d="M2308 6943 c7 -3 16 -2 19 1 4 3 -2 6 -13 5 -11 0 -14 -3 -6 -6z"/>
<path d="M2393 6928 c-2 -18 0 -20 7 -8 12 18 13 30 2 30 -4 0 -9 -10 -9 -22z"/>
<path d="M2520 6946 c0 -2 7 -7 16 -10 8 -3 12 -2 9 4 -6 10 -25 14 -25 6z"/>
<path d="M2828 6943 c6 -3 10 -9 6 -14 -8 -14 2 -11 14 4 8 10 6 13 -11 14
-12 0 -16 -1 -9 -4z"/>
<path d="M5855 6940 c3 -5 8 -10 11 -10 2 0 4 5 4 10 0 6 -5 10 -11 10 -5 0
-7 -4 -4 -10z"/>
<path d="M6356 6933 c-6 -14 -5 -15 5 -6 7 7 10 15 7 18 -3 3 -9 -2 -12 -12z"/>
<path d="M6739 6948 c-5 -18 -6 -38 -1 -34 7 8 12 36 6 36 -2 0 -4 -1 -5 -2z"/>
<path d="M7239 6933 c-13 -16 -12 -17 4 -4 16 13 21 21 13 21 -2 0 -10 -8 -17
-17z"/>
<path d="M7370 6940 c-9 -6 -10 -10 -3 -10 6 0 15 5 18 10 8 12 4 12 -15 0z"/>
<path d="M2475 6930 c-3 -5 -3 -10 2 -10 4 0 2 -4 -6 -9 -10 -7 -6 -9 13 -8
22 2 24 4 11 13 -8 6 -12 14 -8 17 3 4 4 7 0 7 -3 0 -9 -4 -12 -10z"/>
<path d="M2114 6915 c3 -23 12 -26 13 -5 1 11 -2 20 -7 20 -4 0 -7 -7 -6 -15z"/>
<path d="M2186 6915 c4 -8 11 -15 16 -15 6 0 5 6 -2 15 -7 8 -14 15 -16 15 -2
0 -1 -7 2 -15z"/>
<path d="M2330 6918 c0 -6 3 -8 7 -5 3 4 16 -1 27 -10 21 -18 21 -18 2 5 -21
24 -36 29 -36 10z"/>
<path d="M2415 6919 c-4 -6 -4 -13 -1 -16 3 -4 6 -1 6 7 0 10 4 10 18 -1 15
-13 16 -12 3 4 -16 20 -18 20 -26 6z"/>
<path d="M2650 6918 c0 -6 3 -8 7 -5 3 4 16 -1 27 -10 21 -18 21 -18 2 5 -21
24 -36 29 -36 10z"/>
<path d="M2710 6920 c0 -5 5 -10 10 -10 6 0 10 5 10 10 0 6 -4 10 -10 10 -5 0
-10 -4 -10 -10z"/>
<path d="M2810 6921 c0 -6 4 -13 10 -16 6 -3 7 1 4 9 -7 18 -14 21 -14 7z"/>
<path d="M2990 6926 c0 -2 7 -7 16 -10 8 -3 12 -2 9 4 -6 10 -25 14 -25 6z"/>
<path d="M7316 6921 c9 -9 34 -9 34 -1 0 5 -9 8 -20 7 -10 -1 -17 -3 -14 -6z"/>
<path d="M7390 6922 c0 -6 9 -12 20 -15 11 -3 20 -3 20 -1 0 2 -9 8 -20 14
-11 6 -20 7 -20 2z"/>
<path d="M7442 6916 c7 -8 15 -12 17 -11 5 6 -10 25 -20 25 -5 0 -4 -6 3 -14z"/>
<path d="M7500 6920 c-9 -6 -10 -10 -3 -10 6 0 15 5 18 10 8 12 4 12 -15 0z"/>
<path d="M7586 6922 c-3 -5 1 -9 9 -9 8 0 15 4 15 9 0 4 -4 8 -9 8 -6 0 -12
-4 -15 -8z"/>
<path d="M7693 6905 c0 -8 4 -12 9 -9 5 3 6 10 3 15 -9 13 -12 11 -12 -6z"/>
<path d="M2556 6898 c3 -5 10 -6 15 -3 13 9 11 12 -6 12 -8 0 -12 -4 -9 -9z"/>
<path d="M7170 6900 c0 -5 5 -10 11 -10 5 0 7 5 4 10 -3 6 -8 10 -11 10 -2 0
-4 -4 -4 -10z"/>
<path d="M7515 6901 c-3 -5 0 -13 6 -17 7 -4 9 -3 5 4 -3 5 0 13 6 15 9 4 10
6 1 6 -6 1 -14 -3 -18 -8z"/>
<path d="M7560 6900 c8 -5 20 -10 25 -10 6 0 3 5 -5 10 -8 5 -19 10 -25 10 -5
0 -3 -5 5 -10z"/>
<path d="M7630 6898 c0 -4 4 -8 9 -8 6 0 12 4 15 8 3 5 -1 9 -9 9 -8 0 -15 -4
-15 -9z"/>
<path d="M2333 6885 c0 -8 4 -12 9 -9 5 3 6 10 3 15 -9 13 -12 11 -12 -6z"/>
<path d="M2536 6887 c3 -10 9 -15 12 -12 3 3 0 11 -7 18 -10 9 -11 8 -5 -6z"/>
<path d="M2650 6896 c0 -2 8 -10 18 -17 15 -13 16 -12 3 4 -13 16 -21 21 -21
13z"/>
<path d="M2776 6887 c3 -10 9 -15 12 -12 3 3 0 11 -7 18 -10 9 -11 8 -5 -6z"/>
<path d="M2266 6878 c3 -5 10 -6 15 -3 13 9 11 12 -6 12 -8 0 -12 -4 -9 -9z"/>
<path d="M2436 6882 c-3 -5 1 -9 9 -9 8 0 12 4 9 9 -3 4 -7 8 -9 8 -2 0 -6 -4
-9 -8z"/>
<path d="M2585 6880 c-3 -6 1 -7 9 -4 18 7 21 14 7 14 -6 0 -13 -4 -16 -10z"/>
<path d="M7246 6879 c4 -8 30 -6 38 2 3 3 -5 5 -19 5 -13 0 -22 -3 -19 -7z"/>
<path d="M7450 6880 c0 -5 5 -10 11 -10 5 0 7 5 4 10 -3 6 -8 10 -11 10 -2 0
-4 -4 -4 -10z"/>
<path d="M7675 6869 c-4 -6 -5 -12 -2 -15 2 -3 7 2 10 11 7 17 1 20 -8 4z"/>
<path d="M2610 6859 c0 -5 5 -7 10 -4 6 3 10 8 10 11 0 2 -4 4 -10 4 -5 0 -10
-5 -10 -11z"/>
<path d="M2826 6862 c-3 -5 1 -9 9 -9 8 0 12 4 9 9 -3 4 -7 8 -9 8 -2 0 -6 -4
-9 -8z"/>
<path d="M7429 6858 c7 -9 9 -23 5 -30 -6 -10 -4 -11 7 0 11 10 10 15 -6 30
-17 15 -18 15 -6 0z"/>
<path d="M2397 6853 c-10 -9 -9 -23 1 -23 5 0 9 7 9 15 0 17 -1 18 -10 8z"/>
<path d="M2515 6851 c-3 -5 -2 -12 3 -15 5 -3 9 1 9 9 0 17 -3 19 -12 6z"/>
<path d="M2675 6851 c-3 -5 -2 -12 3 -15 5 -3 9 1 9 9 0 17 -3 19 -12 6z"/>
<path d="M7375 6849 c-4 -6 -5 -12 -2 -15 2 -3 7 2 10 11 7 17 1 20 -8 4z"/>
<path d="M7470 6839 c0 -5 5 -7 10 -4 6 3 10 8 10 11 0 2 -4 4 -10 4 -5 0 -10
-5 -10 -11z"/>
<path d="M7505 6839 c-3 -4 2 -6 10 -5 21 3 28 13 10 13 -9 0 -18 -4 -20 -8z"/>
<path d="M7335 6831 c-3 -5 -2 -12 3 -15 5 -3 9 1 9 9 0 17 -3 19 -12 6z"/>
<path d="M7295 6820 c3 -5 8 -10 11 -10 2 0 4 5 4 10 0 6 -5 10 -11 10 -5 0
-7 -4 -4 -10z"/>
<path d="M7575 6821 c-3 -5 -2 -12 3 -15 5 -3 9 1 9 9 0 17 -3 19 -12 6z"/>
<path d="M2380 6786 c0 -2 8 -10 18 -17 15 -13 16 -12 3 4 -13 16 -21 21 -21
13z"/>
<path d="M4198 4865 c-2 -2 -37 -6 -78 -10 -93 -8 -141 -15 -206 -30 -12 -3
-39 -7 -60 -11 -21 -3 -43 -9 -49 -12 -5 -3 -20 -7 -33 -8 -28 -3 -218 -56
-307 -86 -33 -10 -71 -22 -84 -24 -14 -3 -29 -8 -35 -12 -6 -3 -19 -8 -28 -9
-9 -1 -85 -28 -170 -59 -84 -31 -157 -57 -163 -58 -10 -2 -115 -41 -150 -57
-11 -5 -45 -18 -75 -29 -30 -11 -64 -24 -75 -29 -52 -23 -94 -41 -145 -61 -60
-24 -126 -53 -179 -78 -18 -8 -39 -15 -47 -15 -8 0 -14 -6 -14 -13 0 -14 24
-9 48 9 6 5 12 7 12 4 0 -3 15 -1 33 5 59 18 216 60 292 78 75 17 77 18 113
29 17 5 32 8 32 6 0 -3 11 0 25 5 22 8 273 69 350 85 34 7 65 14 138 30 12 3
36 7 52 9 17 3 50 9 75 15 25 5 61 13 80 16 19 3 60 10 90 15 30 5 80 12 110
16 30 3 58 8 62 10 3 2 28 7 55 10 26 3 59 7 73 9 129 23 554 23 765 0 22 -3
63 -7 90 -10 28 -3 64 -7 80 -9 80 -11 123 -17 155 -22 19 -2 49 -6 65 -9 17
-2 54 -8 84 -14 29 -6 57 -8 62 -5 5 3 9 0 9 -5 0 -6 3 -10 8 -9 6 2 106 -12
122 -17 3 -1 25 -5 50 -10 48 -9 56 -11 68 -15 4 -1 11 -2 15 -1 5 1 25 -3 45
-8 20 -6 80 -20 132 -31 52 -12 122 -27 155 -35 33 -8 74 -16 90 -19 50 -9 68
-13 110 -24 22 -6 85 -21 140 -32 55 -12 109 -23 120 -26 11 -2 29 -6 40 -8
11 -2 38 -9 60 -15 41 -11 225 -49 280 -57 17 -3 45 -9 64 -14 19 -5 38 -7 42
-4 4 2 10 0 14 -6 4 -6 11 -8 16 -5 5 4 14 3 21 -1 7 -5 28 -9 48 -10 19 -1
35 -3 35 -4 0 -1 11 -3 25 -5 14 -1 39 -5 55 -8 17 -3 55 -9 85 -13 30 -4 57
-8 60 -9 8 -2 141 -17 180 -21 19 -2 67 -7 105 -10 94 -9 606 -10 675 -1 30 4
84 12 120 18 36 6 81 12 100 14 19 2 46 6 60 9 14 3 36 8 50 10 14 2 36 7 50
10 14 4 39 9 55 11 17 2 30 4 30 5 0 2 33 9 65 15 14 2 26 4 28 6 2 2 2 2 57
14 22 4 45 10 50 11 6 2 26 6 45 10 19 3 43 10 53 15 9 5 17 8 17 5 0 -2 47 8
105 24 58 16 105 26 105 23 0 -3 6 -1 13 5 7 6 24 13 37 15 14 2 32 6 40 10
13 4 54 15 120 31 8 2 42 12 75 22 33 10 63 19 68 20 4 1 8 2 10 4 1 1 9 3 17
5 8 1 69 19 134 40 66 21 125 38 130 39 13 2 84 25 106 33 18 7 11 5 83 27 31
10 57 19 57 22 0 5 -14 3 -130 -21 -44 -9 -84 -14 -89 -10 -5 3 -13 0 -16 -6
-4 -5 -13 -8 -21 -5 -7 3 -16 2 -18 -3 -3 -4 -21 -8 -41 -9 -20 -1 -40 -4 -45
-7 -5 -3 -31 -8 -57 -11 -26 -2 -64 -9 -83 -14 -19 -5 -53 -11 -75 -15 -23 -3
-52 -8 -65 -10 -14 -3 -113 -19 -220 -36 -107 -16 -206 -32 -220 -34 -14 -2
-47 -7 -75 -10 -70 -8 -108 -13 -152 -19 -87 -13 -217 -27 -278 -31 -27 -2
-50 -4 -50 -5 0 -14 -613 -20 -730 -7 -38 4 -97 10 -130 13 -33 2 -71 6 -85 9
-14 2 -47 7 -75 10 -27 4 -59 8 -70 10 -115 16 -310 50 -402 69 -40 9 -87 18
-105 21 -18 3 -51 11 -73 16 -22 6 -51 13 -65 14 -14 2 -56 11 -95 21 -38 9
-83 18 -98 20 -16 2 -33 6 -38 10 -5 3 -22 8 -37 10 -15 3 -63 14 -107 24
-137 33 -219 52 -249 57 -16 2 -40 9 -54 14 -14 5 -27 8 -29 5 -2 -2 -25 2
-50 10 -25 8 -49 11 -54 8 -5 -3 -9 0 -9 6 0 6 -3 9 -8 6 -4 -2 -34 2 -67 10
-82 20 -352 74 -395 80 -19 2 -46 7 -60 10 -14 2 -41 7 -60 9 -19 3 -46 7 -60
10 -14 3 -43 7 -65 10 -22 2 -58 7 -80 10 -22 3 -65 8 -95 11 -30 3 -75 8
-100 11 -50 5 -607 13 -612 8z"/>
</g>
</svg>
